<svg width="237" height="59" viewBox="0 0 237 59" fill="none" xmlns="http://www.w3.org/2000/svg">
<path d="M34.6416 0L2.40209 32.2396C-0.800697 35.4423 -0.800697 40.6423 2.40209 43.8543L4.00348 45.4557L42.0504 7.40875L34.6416 0Z" fill="#CC2028"/>
<path d="M49.6894 15.0286L48.088 13.4272L10.0503 51.4742L17.459 58.8829L49.6894 26.6433C52.8922 23.4406 52.8922 18.2406 49.6894 15.0286Z" fill="#CC2028"/>
<path d="M76.819 18.929C80.518 18.929 83.676 21.1815 84.2391 24.737H80.7499C80.2861 23.2243 79.0494 22.1532 76.8852 22.1532C74.3787 22.1532 72.5126 23.9641 72.5126 26.5479C72.5126 29.1317 74.3787 30.9425 76.8852 30.9425C79.0494 30.9425 80.2861 29.8715 80.7499 28.3587H84.2391C83.676 31.9142 80.518 34.1668 76.819 34.1668C72.4243 34.1668 69.0344 30.8211 69.0344 26.5589C69.0344 22.2967 72.4243 18.951 76.819 18.951V18.929Z" fill="#111625"/>
<path d="M86.5137 33.9017V19.1829H97.5777V22.2083H89.8815V24.9799H97.0145V28.0053H89.8815V30.8652H97.666V33.8907H86.5247L86.5137 33.9017Z" fill="#111625"/>
<path d="M107.339 18.9285C111.038 18.9285 114.196 21.181 114.759 24.7365H111.27C110.806 23.2238 109.569 22.1527 107.405 22.1527C104.898 22.1527 103.032 23.9636 103.032 26.5474C103.032 29.1312 104.898 30.9421 107.405 30.9421C109.569 30.9421 110.806 29.871 111.27 28.3583H114.759C114.196 31.9137 111.038 34.1663 107.339 34.1663C102.944 34.1663 99.5542 30.8206 99.5542 26.5584C99.5542 22.2962 102.944 18.9506 107.339 18.9506V18.9285Z" fill="#111625"/>
<path d="M125.017 29.6503C125.017 28.789 124.388 28.2811 122.643 27.994L121.174 27.718C118.016 27.1879 116.658 25.62 116.658 23.3454C116.658 20.7395 118.613 18.9507 122.256 18.9507C125.9 18.9507 127.788 20.7174 127.998 23.3012H124.741C124.575 22.4178 123.714 21.9099 122.301 21.9099C120.887 21.9099 120.026 22.4178 120.026 23.3564C120.026 24.295 120.799 24.6814 122.533 24.9575L124.023 25.2335C127.181 25.7635 128.418 27.21 128.418 29.4626C128.418 32.5322 126.11 34.1333 122.51 34.1333C118.911 34.1333 116.647 32.4108 116.459 29.6172H119.739C119.86 30.5889 120.788 31.1741 122.555 31.1741C124.134 31.1741 125.039 30.6109 125.039 29.6613L125.017 29.6503Z" fill="#111625"/>
<path d="M134.966 33.9017V19.1829H146.03V22.2083H138.333V24.9799H145.466V28.0053H138.333V30.8652H146.118V33.8907H134.977L134.966 33.9017Z" fill="#111625"/>
<path d="M157.591 28.0714V33.8905H154.587V28.8222C154.587 27.6407 154.024 26.9341 152.942 26.9341C151.86 26.9341 151.197 27.696 151.197 28.8885V33.8905H148.194V24.4275H151.076V25.4986C151.606 24.7367 152.589 24.1736 153.98 24.1736C156.232 24.1736 157.602 25.7305 157.602 28.0603L157.591 28.0714Z" fill="#111625"/>
<path d="M166.347 32.5764C165.695 33.3494 164.768 33.791 163.608 33.791C161.047 33.791 159.192 31.671 159.192 28.9988C159.192 26.3267 161.047 24.1846 163.608 24.1846C164.746 24.1846 165.673 24.6483 166.325 25.3992V24.4275H169.207V33.7027C169.207 36.5625 167.33 38.3513 164.282 38.3513C161.069 38.3513 159.633 36.4853 159.468 34.6523H162.372C162.46 35.3479 162.979 35.8338 164.249 35.8338C165.828 35.8338 166.347 35.094 166.347 33.4598V32.5764ZM164.249 26.8567C163.156 26.8567 162.272 27.7621 162.272 28.9988C162.272 30.2355 163.156 31.1631 164.249 31.1631C165.342 31.1631 166.27 30.2576 166.27 28.9988C166.27 27.7401 165.386 26.8567 164.249 26.8567Z" fill="#111625"/>
<path d="M172.862 19.5801C173.888 19.5801 174.628 20.342 174.628 21.3689C174.628 22.3958 173.888 23.1577 172.862 23.1577C171.835 23.1577 171.073 22.3958 171.073 21.3689C171.073 20.342 171.813 19.5801 172.862 19.5801ZM174.352 33.9014H171.349V24.4385H174.352V33.9014Z" fill="#111625"/>
<path d="M185.902 28.0714V33.8905H182.899V28.8222C182.899 27.6407 182.336 26.9341 181.253 26.9341C180.171 26.9341 179.509 27.696 179.509 28.8885V33.8905H176.505V24.4275H179.387V25.4986C179.917 24.7367 180.9 24.1736 182.291 24.1736C184.544 24.1736 185.913 25.7305 185.913 28.0603L185.902 28.0714Z" fill="#111625"/>
<path d="M187.503 29.1757C187.503 26.3821 189.667 24.1958 192.384 24.1958C195.1 24.1958 197.264 26.3158 197.264 29.0984C197.264 29.4959 197.242 29.8161 197.198 30.0922H190.529C190.783 31.1412 191.5 31.7153 192.549 31.7153C193.477 31.7153 194.04 31.3841 194.206 30.8099H197.066C196.734 32.4551 195.21 34.1777 192.395 34.1777C189.579 34.1777 187.492 32.0135 187.492 29.1978L187.503 29.1757ZM190.551 28.2261H194.294C194.106 27.2213 193.366 26.6471 192.483 26.6471C191.478 26.6471 190.827 27.2986 190.551 28.2261Z" fill="#111625"/>
<path d="M198.479 29.1757C198.479 26.3821 200.643 24.1958 203.359 24.1958C206.075 24.1958 208.24 26.3158 208.24 29.0984C208.24 29.4959 208.218 29.8161 208.173 30.0922H201.504C201.758 31.1412 202.476 31.7153 203.525 31.7153C204.452 31.7153 205.015 31.3841 205.181 30.8099H208.041C207.71 32.4551 206.186 34.1777 203.37 34.1777C200.554 34.1777 198.468 32.0135 198.468 29.1978L198.479 29.1757ZM201.526 28.2261H205.269C205.082 27.2213 204.342 26.6471 203.458 26.6471C202.454 26.6471 201.802 27.2986 201.526 28.2261Z" fill="#111625"/>
<path d="M216.356 27.2985C216.124 27.2544 215.66 27.2102 215.351 27.2102C213.794 27.2102 212.933 28.2371 212.933 29.9044V33.9016H209.929V24.4387H212.811V25.8852C213.297 25.0239 214.28 24.3503 215.671 24.3503C215.969 24.3503 216.223 24.3724 216.367 24.4166V27.2985H216.356Z" fill="#111625"/>
<path d="M222.296 31.1301C222.296 30.6222 222.064 30.4124 220.971 30.2468L220.209 30.1032C218.189 29.8051 217.261 28.7782 217.261 27.2213C217.261 25.3552 218.862 24.1958 221.071 24.1958C223.953 24.1958 224.935 25.6423 225.09 27.3096H222.396C222.329 26.8459 221.954 26.5146 221.28 26.5146C220.695 26.5146 220.253 26.7686 220.253 27.2323C220.253 27.8175 220.761 27.95 221.722 28.0936L222.462 28.204C224.339 28.458 225.278 29.4076 225.278 31.0859C225.278 32.9741 223.765 34.1556 221.181 34.1556C218.597 34.1556 217.294 32.7422 217.14 31.0197H219.856C219.922 31.5276 220.408 31.8589 221.159 31.8589C221.788 31.8589 222.296 31.6712 222.296 31.1412V31.1301Z" fill="#111625"/>
<path d="M230.224 19.5911H229.164V18.9617H232.057V19.5911H230.997V22.2853H230.224V19.5911Z" fill="#111625"/>
<path d="M235.491 22.285V20.2865L234.509 21.9317H234.166L233.195 20.3306V22.285H232.477V18.9614H233.117L234.365 21.0263L235.591 18.9614H236.22V22.285H235.514H235.491Z" fill="#111625"/>
<path d="M176.549 52.7502H174.341V43.0554H178.725C181.198 43.0554 182.457 44.4357 182.457 46.3901C182.457 48.3445 181.198 49.7247 178.725 49.7468H176.549V52.7502ZM178.526 47.7482C179.586 47.7482 180.171 47.2734 180.171 46.3901C180.171 45.5067 179.586 45.043 178.526 45.043H176.549V47.7482H178.526Z" fill="#111625"/>
<path d="M183.086 46.5225H185.262L186.664 50.4534L188.088 46.5225H190.186L187.625 52.7722H185.637L183.097 46.5225H183.086Z" fill="#111625"/>
<path d="M191.721 46.522V44.7222H193.631V46.522H195.553V48.2666H193.631V50.1548C193.631 50.8283 193.963 51.0713 194.658 51.0713C194.979 51.0713 195.365 51.0161 195.597 50.9498V52.6944C195.288 52.7938 194.703 52.9042 194.217 52.9042C192.671 52.9042 191.655 52.3521 191.655 50.5081V48.2777H190.551V46.533H191.732L191.721 46.522Z" fill="#111625"/>
<path d="M197.286 51.05C197.794 51.05 198.17 51.4365 198.17 51.9334C198.17 52.4303 197.794 52.8168 197.286 52.8168C196.779 52.8168 196.403 52.4303 196.403 51.9334C196.403 51.4365 196.779 51.05 197.286 51.05Z" fill="#111625"/>
<path d="M202.366 52.7505V43.0557H204.574V50.7408H209.355V52.7505H202.354H202.366Z" fill="#111625"/>
<path d="M211.111 46.522V44.7222H213.021V46.522H214.942V48.2666H213.021V50.1548C213.021 50.8283 213.352 51.0713 214.048 51.0713C214.368 51.0713 214.754 51.0161 214.986 50.9498V52.6944C214.677 52.7938 214.092 52.9042 213.606 52.9042C212.06 52.9042 211.044 52.3521 211.044 50.5081V48.2777H209.94V46.533H211.111V46.522Z" fill="#111625"/>
<path d="M218.686 46.3572C219.392 46.3572 219.955 46.6222 220.386 47.0749V43.0557H222.362V52.7505H220.463V52.11C220.033 52.618 219.436 52.9161 218.697 52.9161C216.996 52.9161 215.781 51.4917 215.781 49.6366C215.781 47.7816 216.996 46.3572 218.686 46.3572ZM219.116 51.1383C219.845 51.1383 220.43 50.5531 220.43 49.6477C220.43 48.7422 219.845 48.157 219.116 48.157C218.387 48.157 217.813 48.7202 217.813 49.6477C217.813 50.5752 218.376 51.1383 219.116 51.1383Z" fill="#111625"/>
<path d="M224.372 51.05C224.88 51.05 225.255 51.4365 225.255 51.9334C225.255 52.4303 224.88 52.8168 224.372 52.8168C223.864 52.8168 223.489 52.4303 223.489 51.9334C223.489 51.4365 223.864 51.05 224.372 51.05Z" fill="#111625"/>
</svg>
