<svg width="1062" height="246" viewBox="0 0 1062 246" fill="none" xmlns="http://www.w3.org/2000/svg">
<rect x="1" y="1" width="256" height="48" rx="24" fill="#111625"/>
<path d="M37.546 31.5V17.42H43.97C46.786 17.42 48.48 19.356 48.48 21.754C48.48 24.152 46.786 26.088 43.97 26.088H39.922V31.5H37.546ZM39.922 24.042H43.97C45.246 24.042 46.104 23.118 46.104 21.754C46.104 20.39 45.246 19.488 43.97 19.488H39.922V24.042ZM51.053 31.5V19.092H49.733V16.98H53.385V31.5H51.053ZM61.0363 31.808C58.0003 31.808 55.9763 29.542 55.9763 26.264C55.9763 23.008 58.0883 20.742 61.1023 20.742C62.6643 20.742 63.9403 21.468 64.6223 22.304V21.05H66.8883V31.5H64.6223V30.026C63.8303 31.038 62.6863 31.808 61.0363 31.808ZM58.2863 26.264C58.2863 28.2 59.4523 29.74 60.8823 29.74H62.2683C63.5663 29.74 64.5563 28.64 64.5563 27.21V25.384C64.5563 23.998 63.6323 22.81 62.2683 22.81H60.8823C59.4523 22.81 58.2863 24.35 58.2863 26.264ZM70.0845 31.5V21.05H72.3285V22.59C73.0105 21.402 74.1325 20.742 75.8485 20.742C78.4445 20.742 79.9625 22.216 79.9625 24.922V31.5H77.6525V25.318C77.6525 23.8 76.8825 22.898 75.7825 22.898H74.5065C73.3625 22.898 72.3945 23.888 72.3945 25.318V31.5H70.0845ZM83.0611 31.5V21.05H85.3051V22.59C85.9871 21.402 87.1091 20.742 88.8251 20.742C91.4211 20.742 92.9391 22.216 92.9391 24.922V31.5H90.6291V25.318C90.6291 23.8 89.8591 22.898 88.7591 22.898H87.4831C86.3391 22.898 85.3711 23.888 85.3711 25.318V31.5H83.0611ZM96.3016 31.5V23.14H94.9596V21.05H98.6336V31.5H96.3016ZM96.0156 19.422V16.98H98.6776V19.422H96.0156ZM101.774 31.5V21.05H104.018V22.59C104.7 21.402 105.822 20.742 107.538 20.742C110.134 20.742 111.652 22.216 111.652 24.922V31.5H109.342V25.318C109.342 23.8 108.572 22.898 107.472 22.898H106.196C105.052 22.898 104.084 23.888 104.084 25.318V31.5H101.774ZM115.081 35.24V33.216H121.945C122.407 33.216 122.627 33.018 122.627 32.556V30.004C121.967 31.016 120.845 31.676 119.195 31.676C116.159 31.676 114.135 29.454 114.135 26.22C114.135 23.008 116.181 20.742 119.195 20.742C120.779 20.742 121.989 21.358 122.671 22.392V21.05H124.915V32.996C124.915 34.47 124.167 35.24 122.693 35.24H115.081ZM116.445 26.22C116.445 28.09 117.611 29.63 119.041 29.63H120.361C121.615 29.63 122.605 28.552 122.605 27.1V25.384C122.605 23.998 121.681 22.81 120.361 22.81H119.041C117.611 22.81 116.445 24.35 116.445 26.22ZM138.183 31.808C134.795 31.808 132.859 30.18 132.859 27.584C132.859 25.846 133.783 24.702 135.367 24.174L135.345 24.108C134.069 23.58 133.277 22.436 133.277 20.94C133.277 19.026 134.597 17.42 137.963 17.42H141.923V19.488H137.501C136.269 19.488 135.565 20.192 135.565 21.314C135.565 22.458 136.313 23.184 137.501 23.184H140.955V21.402H143.221V23.184H144.915V25.164H143.221V27.122C143.221 29.96 141.571 31.808 138.183 31.808ZM135.147 27.43C135.147 28.882 136.093 29.74 137.457 29.74H138.667C140.053 29.74 140.977 28.882 140.977 27.408V25.164H137.391C136.115 25.164 135.147 25.956 135.147 27.43ZM152.487 31.5V17.42H157.899C162.189 17.42 165.137 20.104 165.137 24.46C165.137 28.816 162.211 31.5 157.899 31.5H152.487ZM154.863 29.322H158.317C160.979 29.322 162.717 27.298 162.717 24.46C162.717 21.6 160.979 19.598 158.317 19.598H154.863V29.322ZM172.743 31.808C169.267 31.808 167.287 29.476 167.287 26.286C167.287 22.92 169.531 20.742 172.809 20.742C175.911 20.742 177.979 22.634 177.979 26.396V26.924H169.597C169.817 28.53 170.829 29.784 172.347 29.784H173.293C174.481 29.784 175.251 29.058 175.493 28.134H177.781C177.495 30.246 175.757 31.808 172.743 31.808ZM169.685 25.164H175.647C175.537 23.69 174.503 22.766 173.381 22.766H172.171C170.961 22.766 169.993 23.712 169.685 25.164ZM184.517 31.808C181.481 31.808 179.985 30.642 179.897 28.354H182.119C182.229 29.278 182.801 29.872 183.989 29.872H185.441C186.475 29.872 186.959 29.344 186.959 28.64C186.959 27.98 186.563 27.518 185.617 27.386L183.175 27.078C181.107 26.836 180.183 25.604 180.183 23.998C180.183 21.886 181.745 20.742 184.561 20.742C187.245 20.742 188.873 21.82 188.961 24.218H186.739C186.629 23.316 186.255 22.678 185.111 22.678H183.791C182.801 22.678 182.339 23.206 182.339 23.888C182.339 24.57 182.779 25.032 183.725 25.164L186.189 25.472C188.191 25.714 189.115 26.792 189.115 28.464C189.115 30.62 187.685 31.808 184.517 31.808ZM191.929 31.5V23.14H190.587V21.05H194.261V31.5H191.929ZM191.643 19.422V16.98H194.305V19.422H191.643ZM197.731 35.24V33.216H204.595C205.057 33.216 205.277 33.018 205.277 32.556V30.004C204.617 31.016 203.495 31.676 201.845 31.676C198.809 31.676 196.785 29.454 196.785 26.22C196.785 23.008 198.831 20.742 201.845 20.742C203.429 20.742 204.639 21.358 205.321 22.392V21.05H207.565V32.996C207.565 34.47 206.817 35.24 205.343 35.24H197.731ZM199.095 26.22C199.095 28.09 200.261 29.63 201.691 29.63H203.011C204.265 29.63 205.255 28.552 205.255 27.1V25.384C205.255 23.998 204.331 22.81 203.011 22.81H201.691C200.261 22.81 199.095 24.35 199.095 26.22ZM210.786 31.5V21.05H213.03V22.59C213.712 21.402 214.834 20.742 216.55 20.742C219.146 20.742 220.664 22.216 220.664 24.922V31.5H218.354V25.318C218.354 23.8 217.584 22.898 216.484 22.898H215.208C214.064 22.898 213.096 23.888 213.096 25.318V31.5H210.786Z" fill="white"/>
<rect x="1" y="1" width="256" height="48" rx="24" stroke="#CC2028" stroke-width="0.8"/>
<rect x="2" y="83" width="255" height="48" rx="24" fill="#111625"/>
<path d="M64.046 113.5V99.42H70.47C73.286 99.42 74.98 101.356 74.98 103.754C74.98 106.152 73.286 108.088 70.47 108.088H66.422V113.5H64.046ZM66.422 106.042H70.47C71.746 106.042 72.604 105.118 72.604 103.754C72.604 102.39 71.746 101.488 70.47 101.488H66.422V106.042ZM77.399 113.5V103.05H79.643V104.722C80.083 103.688 81.051 103.05 82.151 103.05H83.581V105.272H81.447C80.281 105.272 79.709 106.064 79.709 107.472V113.5H77.399ZM90.2348 113.808C86.9788 113.808 84.6248 111.476 84.6248 108.286C84.6248 105.096 86.9788 102.742 90.2348 102.742C93.5128 102.742 95.8668 105.074 95.8668 108.286C95.8668 111.498 93.5128 113.808 90.2348 113.808ZM86.9348 108.286C86.9348 110.178 88.1888 111.718 89.6188 111.718H90.8728C92.3028 111.718 93.5568 110.2 93.5568 108.286C93.5568 106.372 92.3028 104.832 90.8728 104.832H89.6188C88.1888 104.832 86.9348 106.394 86.9348 108.286ZM103.272 113.808C100.038 113.808 97.8162 111.52 97.8162 108.264C97.8162 105.008 100.06 102.742 103.294 102.742C105.89 102.742 107.936 104.084 108.266 106.812H106C105.78 105.426 104.79 104.81 103.778 104.81H102.678C101.27 104.81 100.126 106.35 100.126 108.264C100.126 110.2 101.27 111.74 102.678 111.74H103.778C104.812 111.74 105.824 111.058 106.022 109.694H108.288C107.98 112.4 105.912 113.808 103.272 113.808ZM114.635 113.808C112.105 113.808 110.609 112.334 110.609 109.628V103.05H112.919V109.232C112.919 110.75 113.689 111.652 114.701 111.652H115.955C117.033 111.652 118.001 110.662 118.001 109.232V103.05H120.311V113.5H118.067V112.07C117.429 113.148 116.329 113.808 114.635 113.808ZM123.526 113.5V103.05H125.77V104.722C126.21 103.688 127.178 103.05 128.278 103.05H129.708V105.272H127.574C126.408 105.272 125.836 106.064 125.836 107.472V113.5H123.526ZM136.208 113.808C132.732 113.808 130.752 111.476 130.752 108.286C130.752 104.92 132.996 102.742 136.274 102.742C139.376 102.742 141.444 104.634 141.444 108.396V108.924H133.062C133.282 110.53 134.294 111.784 135.812 111.784H136.758C137.946 111.784 138.716 111.058 138.958 110.134H141.246C140.96 112.246 139.222 113.808 136.208 113.808ZM133.15 107.164H139.112C139.002 105.69 137.968 104.766 136.846 104.766H135.636C134.426 104.766 133.458 105.712 133.15 107.164ZM144.022 113.5V103.05H146.266V104.546C146.926 103.446 148.004 102.742 149.632 102.742C151.326 102.742 152.602 103.424 153.174 104.722C153.9 103.468 155.132 102.742 156.892 102.742C159.334 102.742 160.852 104.15 160.852 106.702V113.5H158.542V107.318C158.542 105.8 157.794 104.898 156.782 104.898H155.638C154.56 104.898 153.592 105.888 153.592 107.318V113.5H151.282V107.318C151.282 105.8 150.534 104.898 149.522 104.898H148.378C147.3 104.898 146.332 105.888 146.332 107.318V113.5H144.022ZM168.8 113.808C165.324 113.808 163.344 111.476 163.344 108.286C163.344 104.92 165.588 102.742 168.866 102.742C171.968 102.742 174.036 104.634 174.036 108.396V108.924H165.654C165.874 110.53 166.886 111.784 168.404 111.784H169.35C170.538 111.784 171.308 111.058 171.55 110.134H173.838C173.552 112.246 171.814 113.808 168.8 113.808ZM165.742 107.164H171.704C171.594 105.69 170.56 104.766 169.438 104.766H168.228C167.018 104.766 166.05 105.712 165.742 107.164ZM176.614 113.5V103.05H178.858V104.59C179.54 103.402 180.662 102.742 182.378 102.742C184.974 102.742 186.492 104.216 186.492 106.922V113.5H184.182V107.318C184.182 105.8 183.412 104.898 182.312 104.898H181.036C179.892 104.898 178.924 105.888 178.924 107.318V113.5H176.614ZM193.222 113.5C191.528 113.5 190.582 112.62 190.582 111.058V105.074H188.558V103.05H190.582V100.124H192.914V103.05H195.642V105.074H192.914V110.398C192.914 111.08 193.134 111.41 193.882 111.41H195.73V113.5H193.222Z" fill="white"/>
<rect x="2" y="83" width="255" height="48" rx="24" stroke="#CC2028" stroke-width="0.8"/>
<rect x="806" y="83" width="255" height="48" rx="24" fill="#111625"/>
<path d="M875.046 113.5V99.42H885.078V101.554H877.4V105.514H884.528V107.626H877.4V113.5H875.046ZM891.79 113.808C888.754 113.808 886.73 111.542 886.73 108.264C886.73 105.008 888.842 102.742 891.856 102.742C893.418 102.742 894.694 103.468 895.376 104.304V103.05H897.642V113.5H895.376V112.026C894.584 113.038 893.44 113.808 891.79 113.808ZM889.04 108.264C889.04 110.2 890.206 111.74 891.636 111.74H893.022C894.32 111.74 895.31 110.64 895.31 109.21V107.384C895.31 105.998 894.386 104.81 893.022 104.81H891.636C890.206 104.81 889.04 106.35 889.04 108.264ZM906.514 113.808C904.886 113.808 903.852 113.104 903.082 112.224V113.5H900.838V98.98H903.148V104.392C903.808 103.512 904.952 102.742 906.624 102.742C909.638 102.742 911.728 105.008 911.728 108.264C911.728 111.542 909.572 113.808 906.514 113.808ZM903.148 109.166C903.148 110.552 904.072 111.74 905.436 111.74H906.822C908.274 111.74 909.418 110.2 909.418 108.264C909.418 106.35 908.274 104.81 906.822 104.81H905.436C904.138 104.81 903.148 105.91 903.148 107.34V109.166ZM914.331 113.5V103.05H916.575V104.722C917.015 103.688 917.983 103.05 919.083 103.05H920.513V105.272H918.379C917.213 105.272 916.641 106.064 916.641 107.472V113.5H914.331ZM922.931 113.5V105.14H921.589V103.05H925.263V113.5H922.931ZM922.645 101.422V98.98H925.307V101.422H922.645ZM933.243 113.808C930.009 113.808 927.787 111.52 927.787 108.264C927.787 105.008 930.031 102.742 933.265 102.742C935.861 102.742 937.907 104.084 938.237 106.812H935.971C935.751 105.426 934.761 104.81 933.749 104.81H932.649C931.241 104.81 930.097 106.35 930.097 108.264C930.097 110.2 931.241 111.74 932.649 111.74H933.749C934.783 111.74 935.795 111.058 935.993 109.694H938.259C937.951 112.4 935.883 113.808 933.243 113.808ZM945.243 113.808C942.207 113.808 940.183 111.542 940.183 108.264C940.183 105.008 942.295 102.742 945.309 102.742C946.871 102.742 948.147 103.468 948.829 104.304V103.05H951.095V113.5H948.829V112.026C948.037 113.038 946.893 113.808 945.243 113.808ZM942.493 108.264C942.493 110.2 943.659 111.74 945.089 111.74H946.475C947.773 111.74 948.763 110.64 948.763 109.21V107.384C948.763 105.998 947.839 104.81 946.475 104.81H945.089C943.659 104.81 942.493 106.35 942.493 108.264ZM958.01 113.5C956.316 113.5 955.37 112.62 955.37 111.058V105.074H953.346V103.05H955.37V100.124H957.702V103.05H960.43V105.074H957.702V110.398C957.702 111.08 957.922 111.41 958.67 111.41H960.518V113.5H958.01ZM963.278 113.5V105.14H961.936V103.05H965.61V113.5H963.278ZM962.992 101.422V98.98H965.654V101.422H962.992ZM973.745 113.808C970.489 113.808 968.135 111.476 968.135 108.286C968.135 105.096 970.489 102.742 973.745 102.742C977.023 102.742 979.377 105.074 979.377 108.286C979.377 111.498 977.023 113.808 973.745 113.808ZM970.445 108.286C970.445 110.178 971.699 111.718 973.129 111.718H974.383C975.813 111.718 977.067 110.2 977.067 108.286C977.067 106.372 975.813 104.832 974.383 104.832H973.129C971.699 104.832 970.445 106.394 970.445 108.286ZM981.942 113.5V103.05H984.186V104.59C984.868 103.402 985.99 102.742 987.706 102.742C990.302 102.742 991.82 104.216 991.82 106.922V113.5H989.51V107.318C989.51 105.8 988.74 104.898 987.64 104.898H986.364C985.22 104.898 984.252 105.888 984.252 107.318V113.5H981.942Z" fill="white"/>
<rect x="806" y="83" width="255" height="48" rx="24" stroke="#CC2028" stroke-width="0.8"/>
<rect x="804" y="2" width="255" height="48" rx="24" fill="#111625"/>
<path d="M846.276 32.808C842.536 32.808 840.666 31.246 840.6 28.188H843.02C843.152 29.508 843.966 30.63 845.418 30.63H847.354C848.652 30.63 849.466 29.772 849.466 28.65C849.466 27.594 848.762 26.846 847.662 26.714L844.626 26.34C842.206 26.054 840.952 24.536 840.952 22.358C840.952 19.806 842.756 18.112 846.166 18.112C849.598 18.112 851.424 19.674 851.556 22.732H849.136C849.07 21.544 848.344 20.29 846.914 20.29H845.242C844.076 20.29 843.306 21.038 843.306 22.16C843.306 23.348 844.164 24.03 845.198 24.162L848.234 24.536C850.61 24.844 851.82 26.23 851.82 28.474C851.82 31.048 850.126 32.808 846.276 32.808ZM854.841 32.5V24.14H853.499V22.05H857.173V32.5H854.841ZM854.555 20.422V17.98H857.217V20.422H854.555ZM864.031 32.5C862.337 32.5 861.391 31.62 861.391 30.058V24.074H859.367V22.05H861.391V19.124H863.723V22.05H866.451V24.074H863.723V29.398C863.723 30.08 863.943 30.41 864.691 30.41H866.539V32.5H864.031ZM873.704 32.808C870.228 32.808 868.248 30.476 868.248 27.286C868.248 23.92 870.492 21.742 873.77 21.742C876.872 21.742 878.94 23.634 878.94 27.396V27.924H870.558C870.778 29.53 871.79 30.784 873.308 30.784H874.254C875.442 30.784 876.212 30.058 876.454 29.134H878.742C878.456 31.246 876.718 32.808 873.704 32.808ZM870.646 26.164H876.608C876.498 24.69 875.464 23.766 874.342 23.766H873.132C871.922 23.766 870.954 24.712 870.646 26.164ZM886.792 32.5V18.42H890.708L893.854 25.438H894.228L897.33 18.42H901.224V32.5H898.826V20.95H898.518L895.394 27.88H892.6L889.454 20.95H889.124V32.5H886.792ZM909.316 32.808C906.28 32.808 904.256 30.542 904.256 27.264C904.256 24.008 906.368 21.742 909.382 21.742C910.944 21.742 912.22 22.468 912.902 23.304V22.05H915.168V32.5H912.902V31.026C912.11 32.038 910.966 32.808 909.316 32.808ZM906.566 27.264C906.566 29.2 907.732 30.74 909.162 30.74H910.548C911.846 30.74 912.836 29.64 912.836 28.21V26.384C912.836 24.998 911.912 23.81 910.548 23.81H909.162C907.732 23.81 906.566 25.35 906.566 27.264ZM918.364 32.5V22.05H920.608V23.59C921.29 22.402 922.412 21.742 924.128 21.742C926.724 21.742 928.242 23.216 928.242 25.922V32.5H925.932V26.318C925.932 24.8 925.162 23.898 924.062 23.898H922.786C921.642 23.898 920.674 24.888 920.674 26.318V32.5H918.364ZM935.784 32.808C932.748 32.808 930.724 30.542 930.724 27.264C930.724 24.008 932.836 21.742 935.85 21.742C937.412 21.742 938.688 22.468 939.37 23.304V22.05H941.636V32.5H939.37V31.026C938.578 32.038 937.434 32.808 935.784 32.808ZM933.034 27.264C933.034 29.2 934.2 30.74 935.63 30.74H937.016C938.314 30.74 939.304 29.64 939.304 28.21V26.384C939.304 24.998 938.38 23.81 937.016 23.81H935.63C934.2 23.81 933.034 25.35 933.034 27.264ZM945.163 36.24V34.216H952.027C952.489 34.216 952.709 34.018 952.709 33.556V31.004C952.049 32.016 950.927 32.676 949.277 32.676C946.241 32.676 944.217 30.454 944.217 27.22C944.217 24.008 946.263 21.742 949.277 21.742C950.861 21.742 952.071 22.358 952.753 23.392V22.05H954.997V33.996C954.997 35.47 954.249 36.24 952.775 36.24H945.163ZM946.527 27.22C946.527 29.09 947.693 30.63 949.123 30.63H950.443C951.697 30.63 952.687 29.552 952.687 28.1V26.384C952.687 24.998 951.763 23.81 950.443 23.81H949.123C947.693 23.81 946.527 25.35 946.527 27.22ZM963.057 32.808C959.581 32.808 957.601 30.476 957.601 27.286C957.601 23.92 959.845 21.742 963.123 21.742C966.225 21.742 968.293 23.634 968.293 27.396V27.924H959.911C960.131 29.53 961.143 30.784 962.661 30.784H963.607C964.795 30.784 965.565 30.058 965.807 29.134H968.095C967.809 31.246 966.071 32.808 963.057 32.808ZM959.999 26.164H965.961C965.851 24.69 964.817 23.766 963.695 23.766H962.485C961.275 23.766 960.307 24.712 959.999 26.164ZM970.872 32.5V22.05H973.116V23.546C973.776 22.446 974.854 21.742 976.482 21.742C978.176 21.742 979.452 22.424 980.024 23.722C980.75 22.468 981.982 21.742 983.742 21.742C986.184 21.742 987.702 23.15 987.702 25.702V32.5H985.392V26.318C985.392 24.8 984.644 23.898 983.632 23.898H982.488C981.41 23.898 980.442 24.888 980.442 26.318V32.5H978.132V26.318C978.132 24.8 977.384 23.898 976.372 23.898H975.228C974.15 23.898 973.182 24.888 973.182 26.318V32.5H970.872ZM995.649 32.808C992.173 32.808 990.193 30.476 990.193 27.286C990.193 23.92 992.437 21.742 995.715 21.742C998.817 21.742 1000.89 23.634 1000.89 27.396V27.924H992.503C992.723 29.53 993.735 30.784 995.253 30.784H996.199C997.387 30.784 998.157 30.058 998.399 29.134H1000.69C1000.4 31.246 998.663 32.808 995.649 32.808ZM992.591 26.164H998.553C998.443 24.69 997.409 23.766 996.287 23.766H995.077C993.867 23.766 992.899 24.712 992.591 26.164ZM1003.46 32.5V22.05H1005.71V23.59C1006.39 22.402 1007.51 21.742 1009.23 21.742C1011.82 21.742 1013.34 23.216 1013.34 25.922V32.5H1011.03V26.318C1011.03 24.8 1010.26 23.898 1009.16 23.898H1007.89C1006.74 23.898 1005.77 24.888 1005.77 26.318V32.5H1003.46ZM1020.07 32.5C1018.38 32.5 1017.43 31.62 1017.43 30.058V24.074H1015.41V22.05H1017.43V19.124H1019.76V22.05H1022.49V24.074H1019.76V29.398C1019.76 30.08 1019.98 30.41 1020.73 30.41H1022.58V32.5H1020.07Z" fill="white"/>
<rect x="804" y="2" width="255" height="48" rx="24" stroke="#CC2028" stroke-width="0.8"/>
<rect x="1" y="165" width="256" height="80" rx="32" fill="#111625"/>
<path d="M67.9356 198V183.92H74.2716C76.9556 183.92 78.4076 185.328 78.4076 187.352C78.4076 188.694 77.7256 189.794 76.4936 190.344V190.41C78.0776 190.96 79.0456 192.236 79.0456 193.952C79.0456 196.218 77.4836 198 74.6236 198H67.9356ZM70.2896 196.064H74.6016C75.8116 196.064 76.6916 195.14 76.6916 193.798C76.6916 192.456 75.8116 191.554 74.6016 191.554H70.2896V196.064ZM70.2896 189.64H74.3156C75.3276 189.64 76.0536 188.892 76.0536 187.748C76.0536 186.626 75.3276 185.856 74.3156 185.856H70.2896V189.64ZM85.6532 198.308C83.1232 198.308 81.6272 196.834 81.6272 194.128V187.55H83.9372V193.732C83.9372 195.25 84.7072 196.152 85.7192 196.152H86.9732C88.0512 196.152 89.0192 195.162 89.0192 193.732V187.55H91.3292V198H89.0852V196.57C88.4472 197.648 87.3472 198.308 85.6532 198.308ZM98.9885 198.308C95.9525 198.308 93.9285 196.042 93.9285 192.764C93.9285 189.508 96.0405 187.242 99.0545 187.242C100.616 187.242 101.848 187.968 102.508 188.826V183.48H104.84V198H102.574V196.526C101.782 197.538 100.638 198.308 98.9885 198.308ZM96.2385 192.764C96.2385 194.7 97.4045 196.24 98.8345 196.24H100.22C101.518 196.24 102.508 195.14 102.508 193.71V191.884C102.508 190.498 101.584 189.31 100.22 189.31H98.8345C97.4045 189.31 96.2385 190.85 96.2385 192.764ZM108.367 201.74V199.716H115.231C115.693 199.716 115.913 199.518 115.913 199.056V196.504C115.253 197.516 114.131 198.176 112.481 198.176C109.445 198.176 107.421 195.954 107.421 192.72C107.421 189.508 109.467 187.242 112.481 187.242C114.065 187.242 115.275 187.858 115.957 188.892V187.55H118.201V199.496C118.201 200.97 117.453 201.74 115.979 201.74H108.367ZM109.731 192.72C109.731 194.59 110.897 196.13 112.327 196.13H113.647C114.901 196.13 115.891 195.052 115.891 193.6V191.884C115.891 190.498 114.967 189.31 113.647 189.31H112.327C110.897 189.31 109.731 190.85 109.731 192.72ZM126.261 198.308C122.785 198.308 120.805 195.976 120.805 192.786C120.805 189.42 123.049 187.242 126.327 187.242C129.429 187.242 131.497 189.134 131.497 192.896V193.424H123.115C123.335 195.03 124.347 196.284 125.865 196.284H126.811C127.999 196.284 128.769 195.558 129.011 194.634H131.299C131.013 196.746 129.275 198.308 126.261 198.308ZM123.203 191.664H129.165C129.055 190.19 128.021 189.266 126.899 189.266H125.689C124.479 189.266 123.511 190.212 123.203 191.664ZM137.536 198C135.842 198 134.896 197.12 134.896 195.558V189.574H132.872V187.55H134.896V184.624H137.228V187.55H139.956V189.574H137.228V194.898C137.228 195.58 137.448 195.91 138.196 195.91H140.044V198H137.536ZM142.805 198V189.64H141.463V187.55H145.137V198H142.805ZM142.519 185.922V183.48H145.181V185.922H142.519ZM148.277 198V187.55H150.521V189.09C151.203 187.902 152.325 187.242 154.041 187.242C156.637 187.242 158.155 188.716 158.155 191.422V198H155.845V191.818C155.845 190.3 155.075 189.398 153.975 189.398H152.699C151.555 189.398 150.587 190.388 150.587 191.818V198H148.277ZM161.583 201.74V199.716H168.447C168.909 199.716 169.129 199.518 169.129 199.056V196.504C168.469 197.516 167.347 198.176 165.697 198.176C162.661 198.176 160.637 195.954 160.637 192.72C160.637 189.508 162.683 187.242 165.697 187.242C167.281 187.242 168.491 187.858 169.173 188.892V187.55H171.417V199.496C171.417 200.97 170.669 201.74 169.195 201.74H161.583ZM162.947 192.72C162.947 194.59 164.113 196.13 165.543 196.13H166.863C168.117 196.13 169.107 195.052 169.107 193.6V191.884C169.107 190.498 168.183 189.31 166.863 189.31H165.543C164.113 189.31 162.947 190.85 162.947 192.72ZM184.686 198.308C181.298 198.308 179.362 196.68 179.362 194.084C179.362 192.346 180.286 191.202 181.87 190.674L181.848 190.608C180.572 190.08 179.78 188.936 179.78 187.44C179.78 185.526 181.1 183.92 184.466 183.92H188.426V185.988H184.004C182.772 185.988 182.068 186.692 182.068 187.814C182.068 188.958 182.816 189.684 184.004 189.684H187.458V187.902H189.724V189.684H191.418V191.664H189.724V193.622C189.724 196.46 188.074 198.308 184.686 198.308ZM181.65 193.93C181.65 195.382 182.596 196.24 183.96 196.24H185.17C186.556 196.24 187.48 195.382 187.48 193.908V191.664H183.894C182.618 191.664 181.65 192.456 181.65 193.93ZM53.9965 225.308C49.9265 225.308 46.9785 222.822 46.9785 217.96C46.9785 213.582 49.8165 210.612 54.0845 210.612C57.8025 210.612 60.2665 212.68 60.5085 216.002H58.1325C57.6705 213.824 56.3505 212.834 54.9205 212.834H53.1825C51.1585 212.834 49.3765 215.078 49.3765 217.96C49.3765 220.842 51.1585 223.086 53.1825 223.086H54.9205C56.3505 223.086 57.7145 222.096 58.1765 219.918H60.5525C60.3105 223.152 57.8025 225.308 53.9965 225.308ZM68.0746 225.308C64.8186 225.308 62.4646 222.976 62.4646 219.786C62.4646 216.596 64.8186 214.242 68.0746 214.242C71.3526 214.242 73.7066 216.574 73.7066 219.786C73.7066 222.998 71.3526 225.308 68.0746 225.308ZM64.7746 219.786C64.7746 221.678 66.0286 223.218 67.4586 223.218H68.7126C70.1426 223.218 71.3966 221.7 71.3966 219.786C71.3966 217.872 70.1426 216.332 68.7126 216.332H67.4586C66.0286 216.332 64.7746 217.894 64.7746 219.786ZM80.232 225.308C77.196 225.308 75.7 224.142 75.612 221.854H77.834C77.944 222.778 78.516 223.372 79.704 223.372H81.156C82.19 223.372 82.674 222.844 82.674 222.14C82.674 221.48 82.278 221.018 81.332 220.886L78.89 220.578C76.822 220.336 75.898 219.104 75.898 217.498C75.898 215.386 77.46 214.242 80.276 214.242C82.96 214.242 84.588 215.32 84.676 217.718H82.454C82.344 216.816 81.97 216.178 80.826 216.178H79.506C78.516 216.178 78.054 216.706 78.054 217.388C78.054 218.07 78.494 218.532 79.44 218.664L81.904 218.972C83.906 219.214 84.83 220.292 84.83 221.964C84.83 224.12 83.4 225.308 80.232 225.308ZM90.9041 225C89.2101 225 88.2641 224.12 88.2641 222.558V216.574H86.2401V214.55H88.2641V211.624H90.5961V214.55H93.3241V216.574H90.5961V221.898C90.5961 222.58 90.8161 222.91 91.5641 222.91H93.4121V225H90.9041ZM101.183 225V210.92H111.435V212.988H103.537V216.75H110.885V218.796H103.537V222.932H111.545V225H101.183ZM118.324 225.308C115.288 225.308 113.792 224.142 113.704 221.854H115.926C116.036 222.778 116.608 223.372 117.796 223.372H119.248C120.282 223.372 120.766 222.844 120.766 222.14C120.766 221.48 120.37 221.018 119.424 220.886L116.982 220.578C114.914 220.336 113.99 219.104 113.99 217.498C113.99 215.386 115.552 214.242 118.368 214.242C121.052 214.242 122.68 215.32 122.768 217.718H120.546C120.436 216.816 120.062 216.178 118.918 216.178H117.598C116.608 216.178 116.146 216.706 116.146 217.388C116.146 218.07 116.586 218.532 117.532 218.664L119.996 218.972C121.998 219.214 122.922 220.292 122.922 221.964C122.922 224.12 121.492 225.308 118.324 225.308ZM128.996 225C127.302 225 126.356 224.12 126.356 222.558V216.574H124.332V214.55H126.356V211.624H128.688V214.55H131.416V216.574H128.688V221.898C128.688 222.58 128.908 222.91 129.656 222.91H131.504V225H128.996ZM134.265 225V216.64H132.923V214.55H136.597V225H134.265ZM133.979 212.922V210.48H136.641V212.922H133.979ZM139.737 225V214.55H141.981V216.046C142.641 214.946 143.719 214.242 145.347 214.242C147.041 214.242 148.317 214.924 148.889 216.222C149.615 214.968 150.847 214.242 152.607 214.242C155.049 214.242 156.567 215.65 156.567 218.202V225H154.257V218.818C154.257 217.3 153.509 216.398 152.497 216.398H151.353C150.275 216.398 149.307 217.388 149.307 218.818V225H146.997V218.818C146.997 217.3 146.249 216.398 145.237 216.398H144.093C143.015 216.398 142.047 217.388 142.047 218.818V225H139.737ZM164.118 225.308C161.082 225.308 159.058 223.042 159.058 219.764C159.058 216.508 161.17 214.242 164.184 214.242C165.746 214.242 167.022 214.968 167.704 215.804V214.55H169.97V225H167.704V223.526C166.912 224.538 165.768 225.308 164.118 225.308ZM161.368 219.764C161.368 221.7 162.534 223.24 163.964 223.24H165.35C166.648 223.24 167.638 222.14 167.638 220.71V218.884C167.638 217.498 166.714 216.31 165.35 216.31H163.964C162.534 216.31 161.368 217.85 161.368 219.764ZM176.885 225C175.191 225 174.245 224.12 174.245 222.558V216.574H172.221V214.55H174.245V211.624H176.577V214.55H179.305V216.574H176.577V221.898C176.577 222.58 176.797 222.91 177.545 222.91H179.393V225H176.885ZM182.153 225V216.64H180.811V214.55H184.485V225H182.153ZM181.867 212.922V210.48H184.529V212.922H181.867ZM192.62 225.308C189.364 225.308 187.01 222.976 187.01 219.786C187.01 216.596 189.364 214.242 192.62 214.242C195.898 214.242 198.252 216.574 198.252 219.786C198.252 222.998 195.898 225.308 192.62 225.308ZM189.32 219.786C189.32 221.678 190.574 223.218 192.004 223.218H193.258C194.688 223.218 195.942 221.7 195.942 219.786C195.942 217.872 194.688 216.332 193.258 216.332H192.004C190.574 216.332 189.32 217.894 189.32 219.786ZM200.817 225V214.55H203.061V216.09C203.743 214.902 204.865 214.242 206.581 214.242C209.177 214.242 210.695 215.716 210.695 218.422V225H208.385V218.818C208.385 217.3 207.615 216.398 206.515 216.398H205.239C204.095 216.398 203.127 217.388 203.127 218.818V225H200.817Z" fill="white"/>
<rect x="1" y="165" width="256" height="80" rx="32" stroke="#CC2028" stroke-width="0.8"/>
<rect x="804" y="165" width="255" height="80" rx="32" fill="#111625"/>
<path d="M864.968 198V183.92H871.37C874.23 183.92 875.88 185.812 875.88 188.056C875.88 189.838 874.824 191.312 873.042 191.884L876.408 198H873.768L870.6 192.192H867.344V198H864.968ZM867.344 190.234H871.216C872.646 190.234 873.482 189.288 873.482 188.078C873.482 186.89 872.646 185.944 871.216 185.944H867.344V190.234ZM883.548 198.308C880.072 198.308 878.092 195.976 878.092 192.786C878.092 189.42 880.336 187.242 883.614 187.242C886.716 187.242 888.784 189.134 888.784 192.896V193.424H880.402C880.622 195.03 881.634 196.284 883.152 196.284H884.098C885.286 196.284 886.056 195.558 886.298 194.634H888.586C888.3 196.746 886.562 198.308 883.548 198.308ZM880.49 191.664H886.452C886.342 190.19 885.308 189.266 884.186 189.266H882.976C881.766 189.266 880.798 190.212 880.49 191.664ZM891.362 198V187.55H893.606V189.09C894.288 187.902 895.41 187.242 897.126 187.242C899.722 187.242 901.24 188.716 901.24 191.422V198H898.93V191.818C898.93 190.3 898.16 189.398 897.06 189.398H895.784C894.64 189.398 893.672 190.388 893.672 191.818V198H891.362ZM909.332 198.308C906.076 198.308 903.722 195.976 903.722 192.786C903.722 189.596 906.076 187.242 909.332 187.242C912.61 187.242 914.964 189.574 914.964 192.786C914.964 195.998 912.61 198.308 909.332 198.308ZM906.032 192.786C906.032 194.678 907.286 196.218 908.716 196.218H909.97C911.4 196.218 912.654 194.7 912.654 192.786C912.654 190.872 911.4 189.332 909.97 189.332H908.716C907.286 189.332 906.032 190.894 906.032 192.786ZM919.718 198L915.956 187.55H918.266L921.258 195.844H921.61L924.602 187.55H926.824L923.062 198H919.718ZM932.931 198.308C929.895 198.308 927.871 196.042 927.871 192.764C927.871 189.508 929.983 187.242 932.997 187.242C934.559 187.242 935.835 187.968 936.517 188.804V187.55H938.783V198H936.517V196.526C935.725 197.538 934.581 198.308 932.931 198.308ZM930.181 192.764C930.181 194.7 931.347 196.24 932.777 196.24H934.163C935.461 196.24 936.451 195.14 936.451 193.71V191.884C936.451 190.498 935.527 189.31 934.163 189.31H932.777C931.347 189.31 930.181 190.85 930.181 192.764ZM945.697 198C944.003 198 943.057 197.12 943.057 195.558V189.574H941.033V187.55H943.057V184.624H945.389V187.55H948.117V189.574H945.389V194.898C945.389 195.58 945.609 195.91 946.357 195.91H948.205V198H945.697ZM950.966 198V189.64H949.624V187.55H953.298V198H950.966ZM950.68 185.922V183.48H953.342V185.922H950.68ZM961.432 198.308C958.176 198.308 955.822 195.976 955.822 192.786C955.822 189.596 958.176 187.242 961.432 187.242C964.71 187.242 967.064 189.574 967.064 192.786C967.064 195.998 964.71 198.308 961.432 198.308ZM958.132 192.786C958.132 194.678 959.386 196.218 960.816 196.218H962.07C963.5 196.218 964.754 194.7 964.754 192.786C964.754 190.872 963.5 189.332 962.07 189.332H960.816C959.386 189.332 958.132 190.894 958.132 192.786ZM969.629 198V187.55H971.873V189.09C972.555 187.902 973.677 187.242 975.393 187.242C977.989 187.242 979.507 188.716 979.507 191.422V198H977.197V191.818C977.197 190.3 976.427 189.398 975.327 189.398H974.051C972.907 189.398 971.939 190.388 971.939 191.818V198H969.629ZM992.654 198.308C989.266 198.308 987.33 196.68 987.33 194.084C987.33 192.346 988.254 191.202 989.838 190.674L989.816 190.608C988.54 190.08 987.748 188.936 987.748 187.44C987.748 185.526 989.068 183.92 992.434 183.92H996.394V185.988H991.972C990.74 185.988 990.036 186.692 990.036 187.814C990.036 188.958 990.784 189.684 991.972 189.684H995.426V187.902H997.692V189.684H999.386V191.664H997.692V193.622C997.692 196.46 996.042 198.308 992.654 198.308ZM989.618 193.93C989.618 195.382 990.564 196.24 991.928 196.24H993.138C994.524 196.24 995.448 195.382 995.448 193.908V191.664H991.862C990.586 191.664 989.618 192.456 989.618 193.93ZM868.771 225V210.92H875.173C878.033 210.92 879.683 212.812 879.683 215.056C879.683 216.838 878.627 218.312 876.845 218.884L880.211 225H877.571L874.403 219.192H871.147V225H868.771ZM871.147 217.234H875.019C876.449 217.234 877.285 216.288 877.285 215.078C877.285 213.89 876.449 212.944 875.019 212.944H871.147V217.234ZM887.35 225.308C883.874 225.308 881.894 222.976 881.894 219.786C881.894 216.42 884.138 214.242 887.416 214.242C890.518 214.242 892.586 216.134 892.586 219.896V220.424H884.204C884.424 222.03 885.436 223.284 886.954 223.284H887.9C889.088 223.284 889.858 222.558 890.1 221.634H892.388C892.102 223.746 890.364 225.308 887.35 225.308ZM884.292 218.664H890.254C890.144 217.19 889.11 216.266 887.988 216.266H886.778C885.568 216.266 884.6 217.212 884.292 218.664ZM895.165 225V214.55H897.409V216.046C898.069 214.946 899.147 214.242 900.775 214.242C902.469 214.242 903.745 214.924 904.317 216.222C905.043 214.968 906.275 214.242 908.035 214.242C910.477 214.242 911.995 215.65 911.995 218.202V225H909.685V218.818C909.685 217.3 908.937 216.398 907.925 216.398H906.781C905.703 216.398 904.735 217.388 904.735 218.818V225H902.425V218.818C902.425 217.3 901.677 216.398 900.665 216.398H899.521C898.443 216.398 897.475 217.388 897.475 218.818V225H895.165ZM920.096 225.308C916.84 225.308 914.486 222.976 914.486 219.786C914.486 216.596 916.84 214.242 920.096 214.242C923.374 214.242 925.728 216.574 925.728 219.786C925.728 222.998 923.374 225.308 920.096 225.308ZM916.796 219.786C916.796 221.678 918.05 223.218 919.48 223.218H920.734C922.164 223.218 923.418 221.7 923.418 219.786C923.418 217.872 922.164 216.332 920.734 216.332H919.48C918.05 216.332 916.796 217.894 916.796 219.786ZM932.738 225.308C929.702 225.308 927.678 223.042 927.678 219.764C927.678 216.508 929.79 214.242 932.804 214.242C934.366 214.242 935.598 214.968 936.258 215.826V210.48H938.59V225H936.324V223.526C935.532 224.538 934.388 225.308 932.738 225.308ZM929.988 219.764C929.988 221.7 931.154 223.24 932.584 223.24H933.97C935.268 223.24 936.258 222.14 936.258 220.71V218.884C936.258 217.498 935.334 216.31 933.97 216.31H932.584C931.154 216.31 929.988 217.85 929.988 219.764ZM946.626 225.308C943.15 225.308 941.17 222.976 941.17 219.786C941.17 216.42 943.414 214.242 946.692 214.242C949.794 214.242 951.862 216.134 951.862 219.896V220.424H943.48C943.7 222.03 944.712 223.284 946.23 223.284H947.176C948.364 223.284 949.134 222.558 949.376 221.634H951.664C951.378 223.746 949.64 225.308 946.626 225.308ZM943.568 218.664H949.53C949.42 217.19 948.386 216.266 947.264 216.266H946.054C944.844 216.266 943.876 217.212 943.568 218.664ZM954.551 225V212.592H953.231V210.48H956.883V225H954.551ZM960.244 225V212.592H958.924V210.48H962.576V225H960.244ZM966.048 225V216.64H964.706V214.55H968.38V225H966.048ZM965.762 212.922V210.48H968.424V212.922H965.762ZM971.52 225V214.55H973.764V216.09C974.446 214.902 975.568 214.242 977.284 214.242C979.88 214.242 981.398 215.716 981.398 218.422V225H979.088V218.818C979.088 217.3 978.318 216.398 977.218 216.398H975.942C974.798 216.398 973.83 217.388 973.83 218.818V225H971.52ZM984.827 228.74V226.716H991.691C992.153 226.716 992.373 226.518 992.373 226.056V223.504C991.713 224.516 990.591 225.176 988.941 225.176C985.905 225.176 983.881 222.954 983.881 219.72C983.881 216.508 985.927 214.242 988.941 214.242C990.525 214.242 991.735 214.858 992.417 215.892V214.55H994.661V226.496C994.661 227.97 993.913 228.74 992.439 228.74H984.827ZM986.191 219.72C986.191 221.59 987.357 223.13 988.787 223.13H990.107C991.361 223.13 992.351 222.052 992.351 220.6V218.884C992.351 217.498 991.427 216.31 990.107 216.31H988.787C987.357 216.31 986.191 217.85 986.191 219.72Z" fill="white"/>
<rect x="804" y="165" width="255" height="80" rx="32" stroke="#CC2028" stroke-width="0.8"/>
<path d="M804 210L698.124 210C686.81 210 681.153 210 677.638 206.485C674.124 202.971 674.124 197.314 674.124 186L674.124 131C674.124 119.686 674.124 114.029 670.609 110.515C667.094 107 661.437 107 650.124 107L409.909 107C398.596 107 392.939 107 389.424 110.515C385.909 114.029 385.909 119.686 385.909 131L385.909 186C385.909 197.314 385.909 202.971 382.395 206.485C378.88 210 373.223 210 361.909 210L257 210" stroke="#CC2028"/>
<path d="M257 25L362.876 25C374.19 25 379.847 25 383.362 28.5147C386.876 32.0294 386.876 37.6863 386.876 49L386.876 83C386.876 94.3137 386.876 99.9705 390.391 103.485C393.906 107 399.563 107 410.876 107L651.091 107C662.404 107 668.061 107 671.576 103.485C675.091 99.9705 675.091 94.3137 675.091 83L675.091 49C675.091 37.6863 675.091 32.0294 678.605 28.5147C682.12 25 687.777 25 699.091 25L804 25" stroke="#CC2028"/>
<path d="M257 107H804" stroke="#CC2028"/>
<rect x="465" y="77" width="134" height="54" rx="8" fill="#CC2028"/>
<path d="M492.544 110.252C489.484 110.252 487.954 108.974 487.9 106.472H489.88C489.988 107.552 490.654 108.47 491.842 108.47H493.426C494.488 108.47 495.154 107.768 495.154 106.85C495.154 105.986 494.578 105.374 493.678 105.266L491.194 104.96C489.214 104.726 488.188 103.484 488.188 101.702C488.188 99.614 489.664 98.228 492.454 98.228C495.262 98.228 496.756 99.506 496.864 102.008H494.884C494.83 101.036 494.236 100.01 493.066 100.01H491.698C490.744 100.01 490.114 100.622 490.114 101.54C490.114 102.512 490.816 103.07 491.662 103.178L494.146 103.484C496.09 103.736 497.08 104.87 497.08 106.706C497.08 108.812 495.694 110.252 492.544 110.252ZM499.695 110V98.48H508.083V100.172H501.621V103.25H507.633V104.924H501.621V108.308H508.173V110H499.695ZM510.91 110V98.48H516.148C518.488 98.48 519.838 100.028 519.838 101.864C519.838 103.322 518.974 104.528 517.516 104.996L520.27 110H518.11L515.518 105.248H512.854V110H510.91ZM512.854 103.646H516.022C517.192 103.646 517.876 102.872 517.876 101.882C517.876 100.91 517.192 100.136 516.022 100.136H512.854V103.646ZM525.322 110L521.146 98.48H523.234L526.726 108.074H527.014L530.488 98.48H532.522L528.346 110H525.322ZM533.796 110V108.254H536.064V100.226H533.796V98.48H540.294V100.226H538.008V108.254H540.294V110H533.796ZM547.643 110.252C544.313 110.252 541.901 108.218 541.901 104.24C541.901 100.658 544.223 98.228 547.715 98.228C550.757 98.228 552.773 99.92 552.971 102.638H551.027C550.649 100.856 549.569 100.046 548.399 100.046H546.977C545.321 100.046 543.863 101.882 543.863 104.24C543.863 106.598 545.321 108.434 546.977 108.434H548.399C549.569 108.434 550.685 107.624 551.063 105.842H553.007C552.809 108.488 550.757 110.252 547.643 110.252ZM555.576 110V98.48H563.964V100.172H557.502V103.25H563.514V104.924H557.502V108.308H564.054V110H555.576ZM570.591 110.252C567.531 110.252 566.001 108.974 565.947 106.472H567.927C568.035 107.552 568.701 108.47 569.889 108.47H571.473C572.535 108.47 573.201 107.768 573.201 106.85C573.201 105.986 572.625 105.374 571.725 105.266L569.241 104.96C567.261 104.726 566.235 103.484 566.235 101.702C566.235 99.614 567.711 98.228 570.501 98.228C573.309 98.228 574.803 99.506 574.911 102.008H572.931C572.877 101.036 572.283 100.01 571.113 100.01H569.745C568.791 100.01 568.161 100.622 568.161 101.54C568.161 102.512 568.863 103.07 569.709 103.178L572.193 103.484C574.137 103.736 575.127 104.87 575.127 106.706C575.127 108.812 573.741 110.252 570.591 110.252Z" fill="white"/>
</svg>
