<svg width="584" height="327" viewBox="0 0 584 327" fill="none" xmlns="http://www.w3.org/2000/svg">
<rect x="0.652344" y="86.4983" width="256" height="48" rx="24" fill="#111625"/>
<path d="M37.1983 116.998V102.918H43.6223C46.4383 102.918 48.1323 104.854 48.1323 107.252C48.1323 109.65 46.4383 111.586 43.6223 111.586H39.5743V116.998H37.1983ZM39.5743 109.54H43.6223C44.8983 109.54 45.7563 108.616 45.7563 107.252C45.7563 105.888 44.8983 104.986 43.6223 104.986H39.5743V109.54ZM50.7053 116.998V104.59H49.3853V102.478H53.0373V116.998H50.7053ZM60.6887 117.306C57.6527 117.306 55.6287 115.04 55.6287 111.762C55.6287 108.506 57.7407 106.24 60.7547 106.24C62.3167 106.24 63.5927 106.966 64.2747 107.802V106.548H66.5407V116.998H64.2747V115.524C63.4827 116.536 62.3387 117.306 60.6887 117.306ZM57.9387 111.762C57.9387 113.698 59.1047 115.238 60.5347 115.238H61.9207C63.2187 115.238 64.2087 114.138 64.2087 112.708V110.882C64.2087 109.496 63.2847 108.308 61.9207 108.308H60.5347C59.1047 108.308 57.9387 109.848 57.9387 111.762ZM69.7369 116.998V106.548H71.9809V108.088C72.6629 106.9 73.7849 106.24 75.5009 106.24C78.0969 106.24 79.6149 107.714 79.6149 110.42V116.998H77.3049V110.816C77.3049 109.298 76.5349 108.396 75.4349 108.396H74.1589C73.0149 108.396 72.0469 109.386 72.0469 110.816V116.998H69.7369ZM82.7134 116.998V106.548H84.9574V108.088C85.6394 106.9 86.7614 106.24 88.4774 106.24C91.0734 106.24 92.5914 107.714 92.5914 110.42V116.998H90.2814V110.816C90.2814 109.298 89.5114 108.396 88.4114 108.396H87.1354C85.9914 108.396 85.0234 109.386 85.0234 110.816V116.998H82.7134ZM95.954 116.998V108.638H94.612V106.548H98.286V116.998H95.954ZM95.668 104.92V102.478H98.33V104.92H95.668ZM101.426 116.998V106.548H103.67V108.088C104.352 106.9 105.474 106.24 107.19 106.24C109.786 106.24 111.304 107.714 111.304 110.42V116.998H108.994V110.816C108.994 109.298 108.224 108.396 107.124 108.396H105.848C104.704 108.396 103.736 109.386 103.736 110.816V116.998H101.426ZM114.733 120.738V118.714H121.597C122.059 118.714 122.279 118.516 122.279 118.054V115.502C121.619 116.514 120.497 117.174 118.847 117.174C115.811 117.174 113.787 114.952 113.787 111.718C113.787 108.506 115.833 106.24 118.847 106.24C120.431 106.24 121.641 106.856 122.323 107.89V106.548H124.567V118.494C124.567 119.968 123.819 120.738 122.345 120.738H114.733ZM116.097 111.718C116.097 113.588 117.263 115.128 118.693 115.128H120.013C121.267 115.128 122.257 114.05 122.257 112.598V110.882C122.257 109.496 121.333 108.308 120.013 108.308H118.693C117.263 108.308 116.097 109.848 116.097 111.718ZM137.836 117.306C134.448 117.306 132.512 115.678 132.512 113.082C132.512 111.344 133.436 110.2 135.02 109.672L134.998 109.606C133.722 109.078 132.93 107.934 132.93 106.438C132.93 104.524 134.25 102.918 137.616 102.918H141.576V104.986H137.154C135.922 104.986 135.218 105.69 135.218 106.812C135.218 107.956 135.966 108.682 137.154 108.682H140.608V106.9H142.874V108.682H144.568V110.662H142.874V112.62C142.874 115.458 141.224 117.306 137.836 117.306ZM134.8 112.928C134.8 114.38 135.746 115.238 137.11 115.238H138.32C139.706 115.238 140.63 114.38 140.63 112.906V110.662H137.044C135.768 110.662 134.8 111.454 134.8 112.928ZM152.14 116.998V102.918H157.552C161.842 102.918 164.79 105.602 164.79 109.958C164.79 114.314 161.864 116.998 157.552 116.998H152.14ZM154.516 114.82H157.97C160.632 114.82 162.37 112.796 162.37 109.958C162.37 107.098 160.632 105.096 157.97 105.096H154.516V114.82ZM172.395 117.306C168.919 117.306 166.939 114.974 166.939 111.784C166.939 108.418 169.183 106.24 172.461 106.24C175.563 106.24 177.631 108.132 177.631 111.894V112.422H169.249C169.469 114.028 170.481 115.282 171.999 115.282H172.945C174.133 115.282 174.903 114.556 175.145 113.632H177.433C177.147 115.744 175.409 117.306 172.395 117.306ZM169.337 110.662H175.299C175.189 109.188 174.155 108.264 173.033 108.264H171.823C170.613 108.264 169.645 109.21 169.337 110.662ZM184.17 117.306C181.134 117.306 179.638 116.14 179.55 113.852H181.772C181.882 114.776 182.454 115.37 183.642 115.37H185.094C186.128 115.37 186.612 114.842 186.612 114.138C186.612 113.478 186.216 113.016 185.27 112.884L182.828 112.576C180.76 112.334 179.836 111.102 179.836 109.496C179.836 107.384 181.398 106.24 184.214 106.24C186.898 106.24 188.526 107.318 188.614 109.716H186.392C186.282 108.814 185.908 108.176 184.764 108.176H183.444C182.454 108.176 181.992 108.704 181.992 109.386C181.992 110.068 182.432 110.53 183.378 110.662L185.842 110.97C187.844 111.212 188.768 112.29 188.768 113.962C188.768 116.118 187.338 117.306 184.17 117.306ZM191.581 116.998V108.638H190.239V106.548H193.913V116.998H191.581ZM191.295 104.92V102.478H193.957V104.92H191.295ZM197.383 120.738V118.714H204.247C204.709 118.714 204.929 118.516 204.929 118.054V115.502C204.269 116.514 203.147 117.174 201.497 117.174C198.461 117.174 196.437 114.952 196.437 111.718C196.437 108.506 198.483 106.24 201.497 106.24C203.081 106.24 204.291 106.856 204.973 107.89V106.548H207.217V118.494C207.217 119.968 206.469 120.738 204.995 120.738H197.383ZM198.747 111.718C198.747 113.588 199.913 115.128 201.343 115.128H202.663C203.917 115.128 204.907 114.05 204.907 112.598V110.882C204.907 109.496 203.983 108.308 202.663 108.308H201.343C199.913 108.308 198.747 109.848 198.747 111.718ZM210.438 116.998V106.548H212.682V108.088C213.364 106.9 214.486 106.24 216.202 106.24C218.798 106.24 220.316 107.714 220.316 110.42V116.998H218.006V110.816C218.006 109.298 217.236 108.396 216.136 108.396H214.86C213.716 108.396 212.748 109.386 212.748 110.816V116.998H210.438Z" fill="white"/>
<rect x="0.652344" y="86.4983" width="256" height="48" rx="24" stroke="#CC2028" stroke-width="0.8"/>
<rect x="0.652344" y="166.498" width="255" height="48" rx="24" fill="#111625"/>
<path d="M62.6983 196.998V182.918H69.1223C71.9383 182.918 73.6323 184.854 73.6323 187.252C73.6323 189.65 71.9383 191.586 69.1223 191.586H65.0743V196.998H62.6983ZM65.0743 189.54H69.1223C70.3983 189.54 71.2563 188.616 71.2563 187.252C71.2563 185.888 70.3983 184.986 69.1223 184.986H65.0743V189.54ZM76.0513 196.998V186.548H78.2953V188.22C78.7353 187.186 79.7033 186.548 80.8033 186.548H82.2333V188.77H80.0993C78.9333 188.77 78.3613 189.562 78.3613 190.97V196.998H76.0513ZM88.8871 197.306C85.6311 197.306 83.2771 194.974 83.2771 191.784C83.2771 188.594 85.6311 186.24 88.8871 186.24C92.1651 186.24 94.5191 188.572 94.5191 191.784C94.5191 194.996 92.1651 197.306 88.8871 197.306ZM85.5871 191.784C85.5871 193.676 86.8411 195.216 88.2711 195.216H89.5251C90.9551 195.216 92.2091 193.698 92.2091 191.784C92.2091 189.87 90.9551 188.33 89.5251 188.33H88.2711C86.8411 188.33 85.5871 189.892 85.5871 191.784ZM101.925 197.306C98.6905 197.306 96.4685 195.018 96.4685 191.762C96.4685 188.506 98.7125 186.24 101.947 186.24C104.543 186.24 106.589 187.582 106.919 190.31H104.653C104.433 188.924 103.443 188.308 102.431 188.308H101.331C99.9225 188.308 98.7785 189.848 98.7785 191.762C98.7785 193.698 99.9225 195.238 101.331 195.238H102.431C103.465 195.238 104.477 194.556 104.675 193.192H106.941C106.633 195.898 104.565 197.306 101.925 197.306ZM113.287 197.306C110.757 197.306 109.261 195.832 109.261 193.126V186.548H111.571V192.73C111.571 194.248 112.341 195.15 113.353 195.15H114.607C115.685 195.15 116.653 194.16 116.653 192.73V186.548H118.963V196.998H116.719V195.568C116.081 196.646 114.981 197.306 113.287 197.306ZM122.178 196.998V186.548H124.422V188.22C124.862 187.186 125.83 186.548 126.93 186.548H128.36V188.77H126.226C125.06 188.77 124.488 189.562 124.488 190.97V196.998H122.178ZM134.86 197.306C131.384 197.306 129.404 194.974 129.404 191.784C129.404 188.418 131.648 186.24 134.926 186.24C138.028 186.24 140.096 188.132 140.096 191.894V192.422H131.714C131.934 194.028 132.946 195.282 134.464 195.282H135.41C136.598 195.282 137.368 194.556 137.61 193.632H139.898C139.612 195.744 137.874 197.306 134.86 197.306ZM131.802 190.662H137.764C137.654 189.188 136.62 188.264 135.498 188.264H134.288C133.078 188.264 132.11 189.21 131.802 190.662ZM142.674 196.998V186.548H144.918V188.044C145.578 186.944 146.656 186.24 148.284 186.24C149.978 186.24 151.254 186.922 151.826 188.22C152.552 186.966 153.784 186.24 155.544 186.24C157.986 186.24 159.504 187.648 159.504 190.2V196.998H157.194V190.816C157.194 189.298 156.446 188.396 155.434 188.396H154.29C153.212 188.396 152.244 189.386 152.244 190.816V196.998H149.934V190.816C149.934 189.298 149.186 188.396 148.174 188.396H147.03C145.952 188.396 144.984 189.386 144.984 190.816V196.998H142.674ZM167.452 197.306C163.976 197.306 161.996 194.974 161.996 191.784C161.996 188.418 164.24 186.24 167.518 186.24C170.62 186.24 172.688 188.132 172.688 191.894V192.422H164.306C164.526 194.028 165.538 195.282 167.056 195.282H168.002C169.19 195.282 169.96 194.556 170.202 193.632H172.49C172.204 195.744 170.466 197.306 167.452 197.306ZM164.394 190.662H170.356C170.246 189.188 169.212 188.264 168.09 188.264H166.88C165.67 188.264 164.702 189.21 164.394 190.662ZM175.266 196.998V186.548H177.51V188.088C178.192 186.9 179.314 186.24 181.03 186.24C183.626 186.24 185.144 187.714 185.144 190.42V196.998H182.834V190.816C182.834 189.298 182.064 188.396 180.964 188.396H179.688C178.544 188.396 177.576 189.386 177.576 190.816V196.998H175.266ZM191.875 196.998C190.181 196.998 189.235 196.118 189.235 194.556V188.572H187.211V186.548H189.235V183.622H191.567V186.548H194.295V188.572H191.567V193.896C191.567 194.578 191.787 194.908 192.535 194.908H194.383V196.998H191.875Z" fill="white"/>
<rect x="0.652344" y="166.498" width="255" height="48" rx="24" stroke="#CC2028" stroke-width="0.8"/>
<rect x="327.652" y="166.498" width="255" height="48" rx="24" fill="#111625"/>
<path d="M396.698 196.998V182.918H406.73V185.052H399.052V189.012H406.18V191.124H399.052V196.998H396.698ZM413.443 197.306C410.407 197.306 408.383 195.04 408.383 191.762C408.383 188.506 410.495 186.24 413.509 186.24C415.071 186.24 416.347 186.966 417.029 187.802V186.548H419.295V196.998H417.029V195.524C416.237 196.536 415.093 197.306 413.443 197.306ZM410.693 191.762C410.693 193.698 411.859 195.238 413.289 195.238H414.675C415.973 195.238 416.963 194.138 416.963 192.708V190.882C416.963 189.496 416.039 188.308 414.675 188.308H413.289C411.859 188.308 410.693 189.848 410.693 191.762ZM428.167 197.306C426.539 197.306 425.505 196.602 424.735 195.722V196.998H422.491V182.478H424.801V187.89C425.461 187.01 426.605 186.24 428.277 186.24C431.291 186.24 433.381 188.506 433.381 191.762C433.381 195.04 431.225 197.306 428.167 197.306ZM424.801 192.664C424.801 194.05 425.725 195.238 427.089 195.238H428.475C429.927 195.238 431.071 193.698 431.071 191.762C431.071 189.848 429.927 188.308 428.475 188.308H427.089C425.791 188.308 424.801 189.408 424.801 190.838V192.664ZM435.983 196.998V186.548H438.227V188.22C438.667 187.186 439.635 186.548 440.735 186.548H442.165V188.77H440.031C438.865 188.77 438.293 189.562 438.293 190.97V196.998H435.983ZM444.583 196.998V188.638H443.241V186.548H446.915V196.998H444.583ZM444.297 184.92V182.478H446.959V184.92H444.297ZM454.895 197.306C451.661 197.306 449.439 195.018 449.439 191.762C449.439 188.506 451.683 186.24 454.917 186.24C457.513 186.24 459.559 187.582 459.889 190.31H457.623C457.403 188.924 456.413 188.308 455.401 188.308H454.301C452.893 188.308 451.749 189.848 451.749 191.762C451.749 193.698 452.893 195.238 454.301 195.238H455.401C456.435 195.238 457.447 194.556 457.645 193.192H459.911C459.603 195.898 457.535 197.306 454.895 197.306ZM466.896 197.306C463.86 197.306 461.836 195.04 461.836 191.762C461.836 188.506 463.948 186.24 466.962 186.24C468.524 186.24 469.8 186.966 470.482 187.802V186.548H472.748V196.998H470.482V195.524C469.69 196.536 468.546 197.306 466.896 197.306ZM464.146 191.762C464.146 193.698 465.312 195.238 466.742 195.238H468.128C469.426 195.238 470.416 194.138 470.416 192.708V190.882C470.416 189.496 469.492 188.308 468.128 188.308H466.742C465.312 188.308 464.146 189.848 464.146 191.762ZM479.662 196.998C477.968 196.998 477.022 196.118 477.022 194.556V188.572H474.998V186.548H477.022V183.622H479.354V186.548H482.082V188.572H479.354V193.896C479.354 194.578 479.574 194.908 480.322 194.908H482.17V196.998H479.662ZM484.931 196.998V188.638H483.589V186.548H487.263V196.998H484.931ZM484.645 184.92V182.478H487.307V184.92H484.645ZM495.397 197.306C492.141 197.306 489.787 194.974 489.787 191.784C489.787 188.594 492.141 186.24 495.397 186.24C498.675 186.24 501.029 188.572 501.029 191.784C501.029 194.996 498.675 197.306 495.397 197.306ZM492.097 191.784C492.097 193.676 493.351 195.216 494.781 195.216H496.035C497.465 195.216 498.719 193.698 498.719 191.784C498.719 189.87 497.465 188.33 496.035 188.33H494.781C493.351 188.33 492.097 189.892 492.097 191.784ZM503.594 196.998V186.548H505.838V188.088C506.52 186.9 507.642 186.24 509.358 186.24C511.954 186.24 513.472 187.714 513.472 190.42V196.998H511.162V190.816C511.162 189.298 510.392 188.396 509.292 188.396H508.016C506.872 188.396 505.904 189.386 505.904 190.816V196.998H503.594Z" fill="white"/>
<rect x="327.652" y="166.498" width="255" height="48" rx="24" stroke="#CC2028" stroke-width="0.8"/>
<rect x="327.652" y="86.4983" width="255" height="48" rx="24" fill="#111625"/>
<path d="M369.928 117.306C366.188 117.306 364.318 115.744 364.252 112.686H366.672C366.804 114.006 367.618 115.128 369.07 115.128H371.006C372.304 115.128 373.118 114.27 373.118 113.148C373.118 112.092 372.414 111.344 371.314 111.212L368.278 110.838C365.858 110.552 364.604 109.034 364.604 106.856C364.604 104.304 366.408 102.61 369.818 102.61C373.25 102.61 375.076 104.172 375.208 107.23H372.788C372.722 106.042 371.996 104.788 370.566 104.788H368.894C367.728 104.788 366.958 105.536 366.958 106.658C366.958 107.846 367.816 108.528 368.85 108.66L371.886 109.034C374.262 109.342 375.472 110.728 375.472 112.972C375.472 115.546 373.778 117.306 369.928 117.306ZM378.493 116.998V108.638H377.151V106.548H380.825V116.998H378.493ZM378.207 104.92V102.478H380.869V104.92H378.207ZM387.683 116.998C385.989 116.998 385.043 116.118 385.043 114.556V108.572H383.019V106.548H385.043V103.622H387.375V106.548H390.103V108.572H387.375V113.896C387.375 114.578 387.595 114.908 388.343 114.908H390.191V116.998H387.683ZM397.356 117.306C393.88 117.306 391.9 114.974 391.9 111.784C391.9 108.418 394.144 106.24 397.422 106.24C400.524 106.24 402.592 108.132 402.592 111.894V112.422H394.21C394.43 114.028 395.442 115.282 396.96 115.282H397.906C399.094 115.282 399.864 114.556 400.106 113.632H402.394C402.108 115.744 400.37 117.306 397.356 117.306ZM394.298 110.662H400.26C400.15 109.188 399.116 108.264 397.994 108.264H396.784C395.574 108.264 394.606 109.21 394.298 110.662ZM410.444 116.998V102.918H414.36L417.506 109.936H417.88L420.982 102.918H424.876V116.998H422.478V105.448H422.17L419.046 112.378H416.252L413.106 105.448H412.776V116.998H410.444ZM432.968 117.306C429.932 117.306 427.908 115.04 427.908 111.762C427.908 108.506 430.02 106.24 433.034 106.24C434.596 106.24 435.872 106.966 436.554 107.802V106.548H438.82V116.998H436.554V115.524C435.762 116.536 434.618 117.306 432.968 117.306ZM430.218 111.762C430.218 113.698 431.384 115.238 432.814 115.238H434.2C435.498 115.238 436.488 114.138 436.488 112.708V110.882C436.488 109.496 435.564 108.308 434.2 108.308H432.814C431.384 108.308 430.218 109.848 430.218 111.762ZM442.016 116.998V106.548H444.26V108.088C444.942 106.9 446.064 106.24 447.78 106.24C450.376 106.24 451.894 107.714 451.894 110.42V116.998H449.584V110.816C449.584 109.298 448.814 108.396 447.714 108.396H446.438C445.294 108.396 444.326 109.386 444.326 110.816V116.998H442.016ZM459.437 117.306C456.401 117.306 454.377 115.04 454.377 111.762C454.377 108.506 456.489 106.24 459.503 106.24C461.065 106.24 462.341 106.966 463.023 107.802V106.548H465.289V116.998H463.023V115.524C462.231 116.536 461.087 117.306 459.437 117.306ZM456.687 111.762C456.687 113.698 457.853 115.238 459.283 115.238H460.669C461.967 115.238 462.957 114.138 462.957 112.708V110.882C462.957 109.496 462.033 108.308 460.669 108.308H459.283C457.853 108.308 456.687 109.848 456.687 111.762ZM468.815 120.738V118.714H475.679C476.141 118.714 476.361 118.516 476.361 118.054V115.502C475.701 116.514 474.579 117.174 472.929 117.174C469.893 117.174 467.869 114.952 467.869 111.718C467.869 108.506 469.915 106.24 472.929 106.24C474.513 106.24 475.723 106.856 476.405 107.89V106.548H478.649V118.494C478.649 119.968 477.901 120.738 476.427 120.738H468.815ZM470.179 111.718C470.179 113.588 471.345 115.128 472.775 115.128H474.095C475.349 115.128 476.339 114.05 476.339 112.598V110.882C476.339 109.496 475.415 108.308 474.095 108.308H472.775C471.345 108.308 470.179 109.848 470.179 111.718ZM486.71 117.306C483.234 117.306 481.254 114.974 481.254 111.784C481.254 108.418 483.498 106.24 486.776 106.24C489.878 106.24 491.946 108.132 491.946 111.894V112.422H483.564C483.784 114.028 484.796 115.282 486.314 115.282H487.26C488.448 115.282 489.218 114.556 489.46 113.632H491.748C491.462 115.744 489.724 117.306 486.71 117.306ZM483.652 110.662H489.614C489.504 109.188 488.47 108.264 487.348 108.264H486.138C484.928 108.264 483.96 109.21 483.652 110.662ZM494.524 116.998V106.548H496.768V108.044C497.428 106.944 498.506 106.24 500.134 106.24C501.828 106.24 503.104 106.922 503.676 108.22C504.402 106.966 505.634 106.24 507.394 106.24C509.836 106.24 511.354 107.648 511.354 110.2V116.998H509.044V110.816C509.044 109.298 508.296 108.396 507.284 108.396H506.14C505.062 108.396 504.094 109.386 504.094 110.816V116.998H501.784V110.816C501.784 109.298 501.036 108.396 500.024 108.396H498.88C497.802 108.396 496.834 109.386 496.834 110.816V116.998H494.524ZM519.301 117.306C515.825 117.306 513.845 114.974 513.845 111.784C513.845 108.418 516.089 106.24 519.367 106.24C522.469 106.24 524.537 108.132 524.537 111.894V112.422H516.155C516.375 114.028 517.387 115.282 518.905 115.282H519.851C521.039 115.282 521.809 114.556 522.051 113.632H524.339C524.053 115.744 522.315 117.306 519.301 117.306ZM516.243 110.662H522.205C522.095 109.188 521.061 108.264 519.939 108.264H518.729C517.519 108.264 516.551 109.21 516.243 110.662ZM527.116 116.998V106.548H529.36V108.088C530.042 106.9 531.164 106.24 532.88 106.24C535.476 106.24 536.994 107.714 536.994 110.42V116.998H534.684V110.816C534.684 109.298 533.914 108.396 532.814 108.396H531.538C530.394 108.396 529.426 109.386 529.426 110.816V116.998H527.116ZM543.724 116.998C542.03 116.998 541.084 116.118 541.084 114.556V108.572H539.06V106.548H541.084V103.622H543.416V106.548H546.144V108.572H543.416V113.896C543.416 114.578 543.636 114.908 544.384 114.908H546.232V116.998H543.724Z" fill="white"/>
<rect x="327.652" y="86.4983" width="255" height="48" rx="24" stroke="#CC2028" stroke-width="0.8"/>
<rect x="0.652344" y="246.498" width="256" height="80" rx="32" fill="#111625"/>
<path d="M67.588 279.498V265.418H73.924C76.608 265.418 78.06 266.826 78.06 268.85C78.06 270.192 77.378 271.292 76.146 271.842V271.908C77.73 272.458 78.698 273.734 78.698 275.45C78.698 277.716 77.136 279.498 74.276 279.498H67.588ZM69.942 277.562H74.254C75.464 277.562 76.344 276.638 76.344 275.296C76.344 273.954 75.464 273.052 74.254 273.052H69.942V277.562ZM69.942 271.138H73.968C74.98 271.138 75.706 270.39 75.706 269.246C75.706 268.124 74.98 267.354 73.968 267.354H69.942V271.138ZM85.3056 279.806C82.7756 279.806 81.2796 278.332 81.2796 275.626V269.048H83.5896V275.23C83.5896 276.748 84.3596 277.65 85.3716 277.65H86.6256C87.7036 277.65 88.6716 276.66 88.6716 275.23V269.048H90.9816V279.498H88.7376V278.068C88.0996 279.146 86.9996 279.806 85.3056 279.806ZM98.6408 279.806C95.6048 279.806 93.5808 277.54 93.5808 274.262C93.5808 271.006 95.6928 268.74 98.7068 268.74C100.269 268.74 101.501 269.466 102.161 270.324V264.978H104.493V279.498H102.227V278.024C101.435 279.036 100.291 279.806 98.6408 279.806ZM95.8908 274.262C95.8908 276.198 97.0568 277.738 98.4868 277.738H99.8728C101.171 277.738 102.161 276.638 102.161 275.208V273.382C102.161 271.996 101.237 270.808 99.8728 270.808H98.4868C97.0568 270.808 95.8908 272.348 95.8908 274.262ZM108.019 283.238V281.214H114.883C115.345 281.214 115.565 281.016 115.565 280.554V278.002C114.905 279.014 113.783 279.674 112.133 279.674C109.097 279.674 107.073 277.452 107.073 274.218C107.073 271.006 109.119 268.74 112.133 268.74C113.717 268.74 114.927 269.356 115.609 270.39V269.048H117.853V280.994C117.853 282.468 117.105 283.238 115.631 283.238H108.019ZM109.383 274.218C109.383 276.088 110.549 277.628 111.979 277.628H113.299C114.553 277.628 115.543 276.55 115.543 275.098V273.382C115.543 271.996 114.619 270.808 113.299 270.808H111.979C110.549 270.808 109.383 272.348 109.383 274.218ZM125.914 279.806C122.438 279.806 120.458 277.474 120.458 274.284C120.458 270.918 122.702 268.74 125.98 268.74C129.082 268.74 131.15 270.632 131.15 274.394V274.922H122.768C122.988 276.528 124 277.782 125.518 277.782H126.464C127.652 277.782 128.422 277.056 128.664 276.132H130.952C130.666 278.244 128.928 279.806 125.914 279.806ZM122.856 273.162H128.818C128.708 271.688 127.674 270.764 126.552 270.764H125.342C124.132 270.764 123.164 271.71 122.856 273.162ZM137.188 279.498C135.494 279.498 134.548 278.618 134.548 277.056V271.072H132.524V269.048H134.548V266.122H136.88V269.048H139.608V271.072H136.88V276.396C136.88 277.078 137.1 277.408 137.848 277.408H139.696V279.498H137.188ZM142.457 279.498V271.138H141.115V269.048H144.789V279.498H142.457ZM142.171 267.42V264.978H144.833V267.42H142.171ZM147.929 279.498V269.048H150.173V270.588C150.855 269.4 151.977 268.74 153.693 268.74C156.289 268.74 157.807 270.214 157.807 272.92V279.498H155.497V273.316C155.497 271.798 154.727 270.896 153.627 270.896H152.351C151.207 270.896 150.239 271.886 150.239 273.316V279.498H147.929ZM161.236 283.238V281.214H168.1C168.562 281.214 168.782 281.016 168.782 280.554V278.002C168.122 279.014 167 279.674 165.35 279.674C162.314 279.674 160.29 277.452 160.29 274.218C160.29 271.006 162.336 268.74 165.35 268.74C166.934 268.74 168.144 269.356 168.826 270.39V269.048H171.07V280.994C171.07 282.468 170.322 283.238 168.848 283.238H161.236ZM162.6 274.218C162.6 276.088 163.766 277.628 165.196 277.628H166.516C167.77 277.628 168.76 276.55 168.76 275.098V273.382C168.76 271.996 167.836 270.808 166.516 270.808H165.196C163.766 270.808 162.6 272.348 162.6 274.218ZM184.339 279.806C180.951 279.806 179.015 278.178 179.015 275.582C179.015 273.844 179.939 272.7 181.523 272.172L181.501 272.106C180.225 271.578 179.433 270.434 179.433 268.938C179.433 267.024 180.753 265.418 184.119 265.418H188.079V267.486H183.657C182.425 267.486 181.721 268.19 181.721 269.312C181.721 270.456 182.469 271.182 183.657 271.182H187.111V269.4H189.377V271.182H191.071V273.162H189.377V275.12C189.377 277.958 187.727 279.806 184.339 279.806ZM181.303 275.428C181.303 276.88 182.249 277.738 183.613 277.738H184.823C186.209 277.738 187.133 276.88 187.133 275.406V273.162H183.547C182.271 273.162 181.303 273.954 181.303 275.428ZM53.6488 306.806C49.5788 306.806 46.6308 304.32 46.6308 299.458C46.6308 295.08 49.4688 292.11 53.7368 292.11C57.4548 292.11 59.9188 294.178 60.1608 297.5H57.7848C57.3228 295.322 56.0028 294.332 54.5728 294.332H52.8348C50.8108 294.332 49.0288 296.576 49.0288 299.458C49.0288 302.34 50.8108 304.584 52.8348 304.584H54.5728C56.0028 304.584 57.3668 303.594 57.8288 301.416H60.2048C59.9628 304.65 57.4548 306.806 53.6488 306.806ZM67.727 306.806C64.471 306.806 62.117 304.474 62.117 301.284C62.117 298.094 64.471 295.74 67.727 295.74C71.005 295.74 73.359 298.072 73.359 301.284C73.359 304.496 71.005 306.806 67.727 306.806ZM64.427 301.284C64.427 303.176 65.681 304.716 67.111 304.716H68.365C69.795 304.716 71.049 303.198 71.049 301.284C71.049 299.37 69.795 297.83 68.365 297.83H67.111C65.681 297.83 64.427 299.392 64.427 301.284ZM79.8844 306.806C76.8484 306.806 75.3524 305.64 75.2644 303.352H77.4864C77.5964 304.276 78.1684 304.87 79.3564 304.87H80.8084C81.8424 304.87 82.3264 304.342 82.3264 303.638C82.3264 302.978 81.9304 302.516 80.9844 302.384L78.5424 302.076C76.4744 301.834 75.5504 300.602 75.5504 298.996C75.5504 296.884 77.1124 295.74 79.9284 295.74C82.6124 295.74 84.2404 296.818 84.3284 299.216H82.1064C81.9964 298.314 81.6224 297.676 80.4784 297.676H79.1584C78.1684 297.676 77.7064 298.204 77.7064 298.886C77.7064 299.568 78.1464 300.03 79.0924 300.162L81.5564 300.47C83.5584 300.712 84.4824 301.79 84.4824 303.462C84.4824 305.618 83.0524 306.806 79.8844 306.806ZM90.5564 306.498C88.8624 306.498 87.9164 305.618 87.9164 304.056V298.072H85.8924V296.048H87.9164V293.122H90.2484V296.048H92.9764V298.072H90.2484V303.396C90.2484 304.078 90.4684 304.408 91.2164 304.408H93.0644V306.498H90.5564ZM100.835 306.498V292.418H111.087V294.486H103.189V298.248H110.537V300.294H103.189V304.43H111.197V306.498H100.835ZM117.976 306.806C114.94 306.806 113.444 305.64 113.356 303.352H115.578C115.688 304.276 116.26 304.87 117.448 304.87H118.9C119.934 304.87 120.418 304.342 120.418 303.638C120.418 302.978 120.022 302.516 119.076 302.384L116.634 302.076C114.566 301.834 113.642 300.602 113.642 298.996C113.642 296.884 115.204 295.74 118.02 295.74C120.704 295.74 122.332 296.818 122.42 299.216H120.198C120.088 298.314 119.714 297.676 118.57 297.676H117.25C116.26 297.676 115.798 298.204 115.798 298.886C115.798 299.568 116.238 300.03 117.184 300.162L119.648 300.47C121.65 300.712 122.574 301.79 122.574 303.462C122.574 305.618 121.144 306.806 117.976 306.806ZM128.648 306.498C126.954 306.498 126.008 305.618 126.008 304.056V298.072H123.984V296.048H126.008V293.122H128.34V296.048H131.068V298.072H128.34V303.396C128.34 304.078 128.56 304.408 129.308 304.408H131.156V306.498H128.648ZM133.917 306.498V298.138H132.575V296.048H136.249V306.498H133.917ZM133.631 294.42V291.978H136.293V294.42H133.631ZM139.389 306.498V296.048H141.633V297.544C142.293 296.444 143.371 295.74 144.999 295.74C146.693 295.74 147.969 296.422 148.541 297.72C149.267 296.466 150.499 295.74 152.259 295.74C154.701 295.74 156.219 297.148 156.219 299.7V306.498H153.909V300.316C153.909 298.798 153.161 297.896 152.149 297.896H151.005C149.927 297.896 148.959 298.886 148.959 300.316V306.498H146.649V300.316C146.649 298.798 145.901 297.896 144.889 297.896H143.745C142.667 297.896 141.699 298.886 141.699 300.316V306.498H139.389ZM163.771 306.806C160.735 306.806 158.711 304.54 158.711 301.262C158.711 298.006 160.823 295.74 163.837 295.74C165.399 295.74 166.675 296.466 167.357 297.302V296.048H169.623V306.498H167.357V305.024C166.565 306.036 165.421 306.806 163.771 306.806ZM161.021 301.262C161.021 303.198 162.187 304.738 163.617 304.738H165.003C166.301 304.738 167.291 303.638 167.291 302.208V300.382C167.291 298.996 166.367 297.808 165.003 297.808H163.617C162.187 297.808 161.021 299.348 161.021 301.262ZM176.537 306.498C174.843 306.498 173.897 305.618 173.897 304.056V298.072H171.873V296.048H173.897V293.122H176.229V296.048H178.957V298.072H176.229V303.396C176.229 304.078 176.449 304.408 177.197 304.408H179.045V306.498H176.537ZM181.806 306.498V298.138H180.464V296.048H184.138V306.498H181.806ZM181.52 294.42V291.978H184.182V294.42H181.52ZM192.272 306.806C189.016 306.806 186.662 304.474 186.662 301.284C186.662 298.094 189.016 295.74 192.272 295.74C195.55 295.74 197.904 298.072 197.904 301.284C197.904 304.496 195.55 306.806 192.272 306.806ZM188.972 301.284C188.972 303.176 190.226 304.716 191.656 304.716H192.91C194.34 304.716 195.594 303.198 195.594 301.284C195.594 299.37 194.34 297.83 192.91 297.83H191.656C190.226 297.83 188.972 299.392 188.972 301.284ZM200.469 306.498V296.048H202.713V297.588C203.395 296.4 204.517 295.74 206.233 295.74C208.829 295.74 210.347 297.214 210.347 299.92V306.498H208.037V300.316C208.037 298.798 207.267 297.896 206.167 297.896H204.891C203.747 297.896 202.779 298.886 202.779 300.316V306.498H200.469Z" fill="white"/>
<rect x="0.652344" y="246.498" width="256" height="80" rx="32" stroke="#CC2028" stroke-width="0.8"/>
<rect x="327.652" y="246.498" width="255" height="80" rx="32" fill="#111625"/>
<path d="M388.62 279.498V265.418H395.022C397.882 265.418 399.532 267.31 399.532 269.554C399.532 271.336 398.476 272.81 396.694 273.382L400.06 279.498H397.42L394.252 273.69H390.996V279.498H388.62ZM390.996 271.732H394.868C396.298 271.732 397.134 270.786 397.134 269.576C397.134 268.388 396.298 267.442 394.868 267.442H390.996V271.732ZM407.2 279.806C403.724 279.806 401.744 277.474 401.744 274.284C401.744 270.918 403.988 268.74 407.266 268.74C410.368 268.74 412.436 270.632 412.436 274.394V274.922H404.054C404.274 276.528 405.286 277.782 406.804 277.782H407.75C408.938 277.782 409.708 277.056 409.95 276.132H412.238C411.952 278.244 410.214 279.806 407.2 279.806ZM404.142 273.162H410.104C409.994 271.688 408.96 270.764 407.838 270.764H406.628C405.418 270.764 404.45 271.71 404.142 273.162ZM415.014 279.498V269.048H417.258V270.588C417.94 269.4 419.062 268.74 420.778 268.74C423.374 268.74 424.892 270.214 424.892 272.92V279.498H422.582V273.316C422.582 271.798 421.812 270.896 420.712 270.896H419.436C418.292 270.896 417.324 271.886 417.324 273.316V279.498H415.014ZM432.985 279.806C429.729 279.806 427.375 277.474 427.375 274.284C427.375 271.094 429.729 268.74 432.985 268.74C436.263 268.74 438.617 271.072 438.617 274.284C438.617 277.496 436.263 279.806 432.985 279.806ZM429.685 274.284C429.685 276.176 430.939 277.716 432.369 277.716H433.623C435.053 277.716 436.307 276.198 436.307 274.284C436.307 272.37 435.053 270.83 433.623 270.83H432.369C430.939 270.83 429.685 272.392 429.685 274.284ZM443.37 279.498L439.608 269.048H441.918L444.91 277.342H445.262L448.254 269.048H450.476L446.714 279.498H443.37ZM456.583 279.806C453.547 279.806 451.523 277.54 451.523 274.262C451.523 271.006 453.635 268.74 456.649 268.74C458.211 268.74 459.487 269.466 460.169 270.302V269.048H462.435V279.498H460.169V278.024C459.377 279.036 458.233 279.806 456.583 279.806ZM453.833 274.262C453.833 276.198 454.999 277.738 456.429 277.738H457.815C459.113 277.738 460.103 276.638 460.103 275.208V273.382C460.103 271.996 459.179 270.808 457.815 270.808H456.429C454.999 270.808 453.833 272.348 453.833 274.262ZM469.349 279.498C467.655 279.498 466.709 278.618 466.709 277.056V271.072H464.685V269.048H466.709V266.122H469.041V269.048H471.769V271.072H469.041V276.396C469.041 277.078 469.261 277.408 470.009 277.408H471.857V279.498H469.349ZM474.618 279.498V271.138H473.276V269.048H476.95V279.498H474.618ZM474.332 267.42V264.978H476.994V267.42H474.332ZM485.084 279.806C481.828 279.806 479.474 277.474 479.474 274.284C479.474 271.094 481.828 268.74 485.084 268.74C488.362 268.74 490.716 271.072 490.716 274.284C490.716 277.496 488.362 279.806 485.084 279.806ZM481.784 274.284C481.784 276.176 483.038 277.716 484.468 277.716H485.722C487.152 277.716 488.406 276.198 488.406 274.284C488.406 272.37 487.152 270.83 485.722 270.83H484.468C483.038 270.83 481.784 272.392 481.784 274.284ZM493.282 279.498V269.048H495.526V270.588C496.208 269.4 497.33 268.74 499.046 268.74C501.642 268.74 503.16 270.214 503.16 272.92V279.498H500.85V273.316C500.85 271.798 500.08 270.896 498.98 270.896H497.704C496.56 270.896 495.592 271.886 495.592 273.316V279.498H493.282ZM516.306 279.806C512.918 279.806 510.982 278.178 510.982 275.582C510.982 273.844 511.906 272.7 513.49 272.172L513.468 272.106C512.192 271.578 511.4 270.434 511.4 268.938C511.4 267.024 512.72 265.418 516.086 265.418H520.046V267.486H515.624C514.392 267.486 513.688 268.19 513.688 269.312C513.688 270.456 514.436 271.182 515.624 271.182H519.078V269.4H521.344V271.182H523.038V273.162H521.344V275.12C521.344 277.958 519.694 279.806 516.306 279.806ZM513.27 275.428C513.27 276.88 514.216 277.738 515.58 277.738H516.79C518.176 277.738 519.1 276.88 519.1 275.406V273.162H515.514C514.238 273.162 513.27 273.954 513.27 275.428ZM392.423 306.498V292.418H398.825C401.685 292.418 403.335 294.31 403.335 296.554C403.335 298.336 402.279 299.81 400.497 300.382L403.863 306.498H401.223L398.055 300.69H394.799V306.498H392.423ZM394.799 298.732H398.671C400.101 298.732 400.937 297.786 400.937 296.576C400.937 295.388 400.101 294.442 398.671 294.442H394.799V298.732ZM411.003 306.806C407.527 306.806 405.547 304.474 405.547 301.284C405.547 297.918 407.791 295.74 411.069 295.74C414.171 295.74 416.239 297.632 416.239 301.394V301.922H407.857C408.077 303.528 409.089 304.782 410.607 304.782H411.553C412.741 304.782 413.511 304.056 413.753 303.132H416.041C415.755 305.244 414.017 306.806 411.003 306.806ZM407.945 300.162H413.907C413.797 298.688 412.763 297.764 411.641 297.764H410.431C409.221 297.764 408.253 298.71 407.945 300.162ZM418.817 306.498V296.048H421.061V297.544C421.721 296.444 422.799 295.74 424.427 295.74C426.121 295.74 427.397 296.422 427.969 297.72C428.695 296.466 429.927 295.74 431.687 295.74C434.129 295.74 435.647 297.148 435.647 299.7V306.498H433.337V300.316C433.337 298.798 432.589 297.896 431.577 297.896H430.433C429.355 297.896 428.387 298.886 428.387 300.316V306.498H426.077V300.316C426.077 298.798 425.329 297.896 424.317 297.896H423.173C422.095 297.896 421.127 298.886 421.127 300.316V306.498H418.817ZM443.748 306.806C440.492 306.806 438.138 304.474 438.138 301.284C438.138 298.094 440.492 295.74 443.748 295.74C447.026 295.74 449.38 298.072 449.38 301.284C449.38 304.496 447.026 306.806 443.748 306.806ZM440.448 301.284C440.448 303.176 441.702 304.716 443.132 304.716H444.386C445.816 304.716 447.07 303.198 447.07 301.284C447.07 299.37 445.816 297.83 444.386 297.83H443.132C441.702 297.83 440.448 299.392 440.448 301.284ZM456.39 306.806C453.354 306.806 451.33 304.54 451.33 301.262C451.33 298.006 453.442 295.74 456.456 295.74C458.018 295.74 459.25 296.466 459.91 297.324V291.978H462.242V306.498H459.976V305.024C459.184 306.036 458.04 306.806 456.39 306.806ZM453.64 301.262C453.64 303.198 454.806 304.738 456.236 304.738H457.622C458.92 304.738 459.91 303.638 459.91 302.208V300.382C459.91 298.996 458.986 297.808 457.622 297.808H456.236C454.806 297.808 453.64 299.348 453.64 301.262ZM470.278 306.806C466.802 306.806 464.822 304.474 464.822 301.284C464.822 297.918 467.066 295.74 470.344 295.74C473.446 295.74 475.514 297.632 475.514 301.394V301.922H467.132C467.352 303.528 468.364 304.782 469.882 304.782H470.828C472.016 304.782 472.786 304.056 473.028 303.132H475.316C475.03 305.244 473.292 306.806 470.278 306.806ZM467.22 300.162H473.182C473.072 298.688 472.038 297.764 470.916 297.764H469.706C468.496 297.764 467.528 298.71 467.22 300.162ZM478.203 306.498V294.09H476.883V291.978H480.535V306.498H478.203ZM483.897 306.498V294.09H482.577V291.978H486.229V306.498H483.897ZM489.7 306.498V298.138H488.358V296.048H492.032V306.498H489.7ZM489.414 294.42V291.978H492.076V294.42H489.414ZM495.172 306.498V296.048H497.416V297.588C498.098 296.4 499.22 295.74 500.936 295.74C503.532 295.74 505.05 297.214 505.05 299.92V306.498H502.74V300.316C502.74 298.798 501.97 297.896 500.87 297.896H499.594C498.45 297.896 497.482 298.886 497.482 300.316V306.498H495.172ZM508.479 310.238V308.214H515.343C515.805 308.214 516.025 308.016 516.025 307.554V305.002C515.365 306.014 514.243 306.674 512.593 306.674C509.557 306.674 507.533 304.452 507.533 301.218C507.533 298.006 509.579 295.74 512.593 295.74C514.177 295.74 515.387 296.356 516.069 297.39V296.048H518.313V307.994C518.313 309.468 517.565 310.238 516.091 310.238H508.479ZM509.843 301.218C509.843 303.088 511.009 304.628 512.439 304.628H513.759C515.013 304.628 516.003 303.55 516.003 302.098V300.382C516.003 298.996 515.079 297.808 513.759 297.808H512.439C511.009 297.808 509.843 299.348 509.843 301.218Z" fill="white"/>
<rect x="327.652" y="246.498" width="255" height="80" rx="32" stroke="#CC2028" stroke-width="0.8"/>
<rect x="224.652" y="0.497314" width="134" height="54" rx="8" fill="#CC2028"/>
<path d="M256.73 24.8453C256.662 24.2402 256.381 23.7715 255.887 23.4391C255.392 23.1024 254.77 22.9341 254.02 22.9341C253.483 22.9341 253.019 23.0193 252.627 23.1898C252.235 23.356 251.93 23.5861 251.713 23.8801C251.5 24.1699 251.393 24.5002 251.393 24.8709C251.393 25.182 251.466 25.4504 251.61 25.6763C251.76 25.9021 251.953 26.0918 252.192 26.2452C252.435 26.3943 252.695 26.52 252.972 26.6223C253.249 26.7203 253.515 26.8013 253.771 26.8652L255.049 27.1976C255.467 27.2999 255.895 27.4384 256.334 27.6131C256.773 27.7878 257.18 28.0179 257.555 28.3034C257.93 28.5889 258.233 28.9426 258.463 29.3645C258.697 29.7864 258.814 30.2913 258.814 30.8794C258.814 31.6209 258.623 32.2793 258.239 32.8546C257.86 33.4298 257.308 33.8837 256.583 34.2161C255.863 34.5485 254.992 34.7146 253.969 34.7146C252.989 34.7146 252.141 34.5591 251.425 34.248C250.709 33.9369 250.149 33.4959 249.744 32.9249C249.339 32.3496 249.115 31.6678 249.073 30.8794H251.054C251.093 31.3524 251.246 31.7466 251.515 32.0619C251.787 32.373 252.135 32.6053 252.556 32.7587C252.983 32.9078 253.449 32.9824 253.956 32.9824C254.515 32.9824 255.011 32.895 255.446 32.7203C255.885 32.5413 256.23 32.2942 256.481 31.9788C256.733 31.6592 256.858 31.2864 256.858 30.8602C256.858 30.4725 256.748 30.155 256.526 29.9078C256.309 29.6607 256.012 29.4561 255.637 29.2942C255.267 29.1323 254.847 28.9895 254.378 28.8659L252.831 28.444C251.783 28.1585 250.952 27.7388 250.338 27.1848C249.729 26.6308 249.424 25.8979 249.424 24.986C249.424 24.2317 249.629 23.5733 250.038 23.0108C250.447 22.4483 251.001 22.0115 251.7 21.7004C252.399 21.3851 253.187 21.2274 254.065 21.2274C254.951 21.2274 255.733 21.383 256.411 21.694C257.093 22.0051 257.63 22.4334 258.022 22.9788C258.414 23.52 258.618 24.1422 258.635 24.8453H256.73ZM261.175 34.4973V21.4064H269.382V23.1067H263.15V27.0953H268.954V28.7892H263.15V32.797H269.459V34.4973H261.175ZM272.02 34.4973V21.4064H276.686C277.701 21.4064 278.542 21.5811 279.211 21.9306C279.885 22.28 280.387 22.7636 280.72 23.3815C281.052 23.9952 281.218 24.7047 281.218 25.5101C281.218 26.3112 281.05 27.0165 280.713 27.6259C280.381 28.231 279.878 28.7019 279.205 29.0385C278.536 29.3752 277.694 29.5435 276.68 29.5435H273.145V27.8432H276.501C277.14 27.8432 277.66 27.7516 278.061 27.5683C278.466 27.3851 278.762 27.1188 278.949 26.7693C279.137 26.4199 279.23 26.0002 279.23 25.5101C279.23 25.0158 279.135 24.5875 278.943 24.2253C278.755 23.8631 278.459 23.5861 278.054 23.3943C277.654 23.1983 277.127 23.1003 276.475 23.1003H273.995V34.4973H272.02ZM278.483 28.5911L281.717 34.4973H279.467L276.297 28.5911H278.483ZM284.45 21.4064L288.093 32.0683H288.24L291.884 21.4064H294.018L289.308 34.4973H287.026L282.315 21.4064H284.45ZM297.884 21.4064V34.4973H295.909V21.4064H297.884ZM311.633 25.6635H309.639C309.562 25.2374 309.42 24.8624 309.211 24.5385C309.002 24.2146 308.746 23.9398 308.444 23.7139C308.141 23.4881 307.802 23.3176 307.427 23.2026C307.057 23.0875 306.662 23.03 306.245 23.03C305.491 23.03 304.815 23.2196 304.219 23.5989C303.626 23.9781 303.157 24.5342 302.812 25.2672C302.471 26.0002 302.301 26.895 302.301 27.9519C302.301 29.0172 302.471 29.9163 302.812 30.6493C303.157 31.3823 303.628 31.9362 304.225 32.3112C304.822 32.6862 305.493 32.8737 306.238 32.8737C306.652 32.8737 307.044 32.8183 307.415 32.7075C307.79 32.5925 308.128 32.4242 308.431 32.2026C308.733 31.981 308.989 31.7104 309.198 31.3908C309.411 31.0669 309.558 30.6962 309.639 30.2786L311.633 30.285C311.527 30.9284 311.32 31.5208 311.013 32.0619C310.711 32.5989 310.321 33.0634 309.844 33.4554C309.371 33.8432 308.829 34.1436 308.22 34.3567C307.611 34.5698 306.946 34.6763 306.226 34.6763C305.092 34.6763 304.082 34.4078 303.196 33.8709C302.309 33.3297 301.611 32.5563 301.099 31.5506C300.592 30.5449 300.339 29.3453 300.339 27.9519C300.339 26.5541 300.594 25.3546 301.106 24.3531C301.617 23.3475 302.316 22.5761 303.202 22.0392C304.089 21.498 305.096 21.2274 306.226 21.2274C306.92 21.2274 307.568 21.3276 308.169 21.5279C308.774 21.7239 309.317 22.0136 309.799 22.3972C310.28 22.7764 310.679 23.2409 310.994 23.7906C311.309 24.3361 311.523 24.9604 311.633 25.6635ZM313.997 34.4973V21.4064H322.204V23.1067H315.972V27.0953H321.776V28.7892H315.972V32.797H322.281V34.4973H313.997ZM331.982 24.8453C331.914 24.2402 331.633 23.7715 331.139 23.4391C330.644 23.1024 330.022 22.9341 329.272 22.9341C328.735 22.9341 328.271 23.0193 327.879 23.1898C327.487 23.356 327.182 23.5861 326.965 23.8801C326.752 24.1699 326.645 24.5002 326.645 24.8709C326.645 25.182 326.718 25.4504 326.862 25.6763C327.012 25.9021 327.205 26.0918 327.444 26.2452C327.687 26.3943 327.947 26.52 328.224 26.6223C328.501 26.7203 328.767 26.8013 329.023 26.8652L330.301 27.1976C330.719 27.2999 331.147 27.4384 331.586 27.6131C332.025 27.7878 332.432 28.0179 332.807 28.3034C333.182 28.5889 333.485 28.9426 333.715 29.3645C333.949 29.7864 334.066 30.2913 334.066 30.8794C334.066 31.6209 333.874 32.2793 333.491 32.8546C333.112 33.4298 332.56 33.8837 331.835 34.2161C331.115 34.5485 330.244 34.7146 329.221 34.7146C328.241 34.7146 327.393 34.5591 326.677 34.248C325.961 33.9369 325.401 33.4959 324.996 32.9249C324.591 32.3496 324.367 31.6678 324.325 30.8794H326.306C326.345 31.3524 326.498 31.7466 326.767 32.0619C327.039 32.373 327.387 32.6053 327.808 32.7587C328.235 32.9078 328.701 32.9824 329.208 32.9824C329.767 32.9824 330.263 32.895 330.698 32.7203C331.137 32.5413 331.482 32.2942 331.733 31.9788C331.985 31.6592 332.11 31.2864 332.11 30.8602C332.11 30.4725 331.999 30.155 331.778 29.9078C331.561 29.6607 331.264 29.4561 330.889 29.2942C330.519 29.1323 330.099 28.9895 329.63 28.8659L328.083 28.444C327.035 28.1585 326.204 27.7388 325.59 27.1848C324.981 26.6308 324.676 25.8979 324.676 24.986C324.676 24.2317 324.881 23.5733 325.29 23.0108C325.699 22.4483 326.253 22.0115 326.952 21.7004C327.651 21.3851 328.439 21.2274 329.317 21.2274C330.203 21.2274 330.985 21.383 331.663 21.694C332.345 22.0051 332.882 22.4334 333.274 22.9788C333.666 23.52 333.87 24.1422 333.887 24.8453H331.982Z" fill="white"/>
<path d="M291.652 58.4973V262.498C291.652 275.753 280.907 286.498 267.652 286.498H260.652" stroke="#CC2028" stroke-width="0.7" stroke-miterlimit="0" stroke-linecap="round" stroke-linejoin="bevel"/>
<path d="M291.652 58.4973V262.498C291.652 275.753 302.398 286.498 315.652 286.498H323.652" stroke="#CC2028" stroke-width="0.7" stroke-miterlimit="0" stroke-linecap="round" stroke-linejoin="bevel"/>
<path d="M291.652 58.4973V166.498C291.652 179.753 280.907 190.498 267.652 190.498H259.652" stroke="#CC2028" stroke-width="0.7" stroke-miterlimit="0" stroke-linecap="round" stroke-linejoin="bevel"/>
<path d="M291.652 58.4973V166.498C291.652 179.753 302.398 190.498 315.652 190.498H323.652" stroke="#CC2028" stroke-width="0.7" stroke-miterlimit="0" stroke-linecap="round" stroke-linejoin="bevel"/>
<path d="M291.652 58.4973V86.4983C291.652 99.7531 280.907 110.498 267.652 110.498H260.652" stroke="#CC2028" stroke-width="0.7" stroke-miterlimit="0" stroke-linecap="round" stroke-linejoin="bevel"/>
<path d="M291.652 58.4973V86.4983C291.652 99.7531 302.398 110.498 315.652 110.498H323.652" stroke="#CC2028" stroke-width="0.7" stroke-miterlimit="0" stroke-linecap="round" stroke-linejoin="bevel"/>
</svg>
